# This file uses centimeters as units for non-parametric coordinates.

mtllib team_dawujian_huakuang.mtl
g default
v -0.339851 0.034599 8.880480
v 0.328255 0.034599 8.880916
v -0.339851 26.790421 8.880480
v 0.328255 26.790421 8.880916
v -0.328243 26.790421 -8.880920
v 0.339848 26.790421 -8.880486
v -0.328243 0.034599 -8.880920
v 0.339848 0.034599 -8.880486
v 0.339607 0.589851 -8.511889
v 0.328484 0.589851 8.512324
v 0.339607 26.235161 -8.511889
v 0.328484 26.235161 8.512324
v 0.138039 0.812737 -8.364063
v 0.127106 0.812737 8.364235
v 0.138039 26.012276 -8.364063
v 0.127106 26.012276 8.364235
vt 0.436143 0.000000
vt 0.443100 0.005543
vt 0.443100 0.449470
vt 0.436143 0.455012
vt 0.723185 0.449470
vt 0.730141 0.455012
vt 0.723185 0.005543
vt 0.730141 0.000000
vt 0.455950 0.018453
vt 0.712110 0.018453
vt 0.712110 0.436559
vt 0.455950 0.436559
vt 0.714625 0.014755
vt 0.452413 0.014755
vt 0.714625 0.440257
vt 0.452413 0.440257
vn -0.000653 0.000000 1.000000
vn -0.000653 0.000000 1.000000
vn -0.000653 0.000000 1.000000
vn -0.000653 0.000000 1.000000
vn 0.000000 1.000000 -0.000000
vn 0.000000 1.000000 -0.000000
vn 0.000000 1.000000 -0.000000
vn 0.000000 1.000000 -0.000000
vn 0.000650 0.000000 -1.000000
vn 0.000650 0.000000 -1.000000
vn 0.000650 0.000000 -1.000000
vn 0.000650 0.000000 -1.000000
vn 0.000000 -1.000000 -0.000000
vn 0.000000 -1.000000 -0.000000
vn 0.000000 -1.000000 -0.000000
vn 0.000000 -1.000000 -0.000000
vn 1.000000 0.000000 0.000654
vn 1.000000 0.000000 0.000654
vn 1.000000 0.000000 0.000654
vn 1.000000 0.000000 0.000654
vn 1.000000 0.000010 0.000653
vn 1.000000 0.000010 0.000653
vn 1.000000 0.000010 0.000653
vn 1.000000 0.000010 0.000653
vn 1.000000 0.000000 0.000652
vn 1.000000 0.000000 0.000652
vn 1.000000 0.000000 0.000652
vn 1.000000 0.000000 0.000652
vn 1.000000 -0.000010 0.000653
vn 1.000000 -0.000010 0.000653
vn 1.000000 -0.000010 0.000653
vn 1.000000 -0.000010 0.000653
vn 1.000000 0.000000 0.000621
vn 1.000000 0.000000 0.000621
vn 1.000000 0.000000 0.000621
vn 1.000000 0.000000 0.000621
vn 0.741841 0.670575 0.000485
vn 0.741841 0.670575 0.000485
vn 0.741841 0.670575 0.000485
vn 0.741841 0.670575 0.000485
vn 0.591384 0.000000 0.806390
vn 0.591384 0.000000 0.806390
vn 0.591384 0.000000 0.806390
vn 0.591384 0.000000 0.806390
vn 0.741841 -0.670575 0.000485
vn 0.741841 -0.670575 0.000485
vn 0.741841 -0.670575 0.000485
vn 0.741841 -0.670575 0.000485
vn 0.592435 0.000000 -0.805618
vn 0.592435 0.000000 -0.805618
vn 0.592435 0.000000 -0.805618
vn 0.592435 0.000000 -0.805618
s off
g polySurface1901 polySurface1512 polySurface1479
usemtl lambert20SG
f 1/1/1 2/2/2 4/3/3 3/4/4
f 3/4/5 4/3/6 6/5/7 5/6/8
f 5/6/9 6/5/10 8/7/11 7/8/12
f 7/8/13 8/7/14 2/2/15 1/1/16
f 14/9/17 13/10/18 15/11/19 16/12/20
f 2/2/21 8/7/22 9/13/23 10/14/24
f 8/7/25 6/5/26 11/15/27 9/13/28
f 6/5/29 4/3/30 12/16/31 11/15/32
f 4/3/33 2/2/34 10/14/35 12/16/36
f 10/14/37 9/13/38 13/10/39 14/9/40
f 9/13/41 11/15/42 15/11/43 13/10/44
f 11/15/45 12/16/46 16/12/47 15/11/48
f 12/16/49 10/14/50 14/9/51 16/12/52
