# This file uses centimeters as units for non-parametric coordinates.

mtllib team_dawujian_zhong.mtl
g default
v 4.639191 16.709618 -2.766211
v -4.321915 16.709618 -2.767857
v 4.639191 25.670715 -2.766211
v -4.321915 25.670715 -2.767857
v -2.871185 22.832729 -3.236873
v -1.653656 24.050266 -3.236649
v 0.009529 24.495914 -3.236343
v 1.672714 24.050266 -3.236038
v 2.890259 22.832729 -3.235814
v 3.335907 21.169544 -3.235732
v 2.890259 19.506355 -3.235814
v 1.672714 18.288820 -3.236038
v 0.009529 17.843172 -3.236343
v -1.653656 18.288820 -3.236649
v -2.871185 19.506355 -3.236873
v -3.316833 21.169544 -3.236954
v 0.009529 21.169544 -3.236343
v -2.871307 22.832729 -2.601404
v -1.653778 24.050266 -2.601181
v 0.009415 21.169544 -2.600876
v 0.009415 24.495914 -2.600876
v 1.672600 24.050266 -2.600571
v 2.890144 22.832729 -2.600347
v 3.335785 21.169544 -2.600265
v 2.890144 19.506355 -2.600347
v 1.672600 18.288820 -2.600571
v 0.009415 17.843172 -2.600876
v -1.653778 18.288820 -2.601181
v -2.871307 19.506355 -2.601404
v -3.316956 21.169544 -2.601486
v 0.302315 6.289487 -1.438622
v -0.573334 6.289487 -1.438783
v 0.302315 18.415356 -1.438622
v -0.573334 18.415356 -1.438783
v 0.302223 18.415356 -0.946940
v -0.573425 18.415356 -0.947101
v 0.302223 6.289487 -0.946940
v -0.573425 6.289487 -0.947101
v -1.783325 7.189625 -1.652771
v -1.103394 7.869553 -1.652646
v -0.174599 8.118423 -1.652475
v 0.754204 7.869553 -1.652305
v 1.434120 7.189625 -1.652180
v 1.682999 6.260828 -1.652134
v 1.434120 5.332030 -1.652180
v 0.754204 4.652104 -1.652305
v -0.174599 4.403231 -1.652475
v -1.103394 4.652104 -1.652646
v -1.783325 5.332030 -1.652771
v -2.032196 6.260828 -1.652816
v -0.174599 6.260828 -1.652475
v -1.783417 7.189625 -1.187922
v -1.103485 7.869553 -1.187797
v -0.174683 8.118423 -1.187626
v 0.754112 7.869553 -1.187455
v 1.434036 7.189625 -1.187330
v 1.682915 6.260828 -1.187285
v 1.434036 5.332030 -1.187330
v 0.754112 4.652104 -1.187455
v -0.174683 4.403231 -1.187626
v -1.103485 4.652104 -1.187797
v -1.783417 5.332030 -1.187922
v -2.032280 6.260828 -1.187967
v 4.712517 1.685773 -4.710778
v -4.710785 1.685773 -4.712508
v 4.712517 26.965786 -4.710778
v -4.710785 26.965786 -4.712508
v 4.710793 26.965786 4.712509
v -4.712509 26.965786 4.710778
v 4.710793 1.685773 4.712509
v -4.712509 1.685773 4.710778
v 6.416725 26.965786 -6.414362
v -6.414368 26.965786 -6.416718
v -6.416718 26.965786 6.414361
v 6.414368 26.965786 6.416718
v 6.416725 29.302322 -6.414362
v -6.414368 29.302322 -6.416718
v -6.416718 29.302322 6.414361
v 6.414368 29.302322 6.416718
v 1.483795 33.558922 -6.415268
v -1.481453 33.558922 -6.415812
v -1.483810 33.558922 6.415267
v 1.481438 33.558922 6.415812
v 3.950256 31.956625 -6.414814
v 3.947899 31.956625 6.416265
v -3.950264 31.956625 6.414814
v -3.947914 31.956625 -6.416265
v 5.968536 1.685773 5.970739
v -5.970749 1.685773 5.968547
v -5.968567 1.685773 -5.970743
v 5.970734 1.685773 -5.968550
v 5.968536 0.071908 5.970739
v -5.970749 0.071908 5.968547
v -5.968567 0.071908 -5.970743
v 5.970734 0.071908 -5.968550
v 3.538971 3.101438 -4.710994
v -3.537247 3.101438 -4.712293
v -3.537247 25.550121 -4.712293
v 3.538971 25.550121 -4.710994
v 3.537956 3.101438 0.793663
v -3.538269 3.101438 0.792364
v -3.538269 25.550121 0.792364
v 3.537956 25.550121 0.793663
vt 0.792592 0.599229
vt 0.953084 0.599229
vt 0.953084 0.759721
vt 0.792592 0.759721
vt 0.583692 0.492673
vt 0.563721 0.472695
vt 0.532910 0.523482
vt 0.532909 0.463754
vt 0.502099 0.472698
vt 0.482126 0.492673
vt 0.473180 0.523483
vt 0.482128 0.554291
vt 0.502099 0.574267
vt 0.532910 0.583216
vt 0.563721 0.574266
vt 0.583694 0.554292
vt 0.592642 0.523481
vt 0.592739 0.486703
vt 0.569687 0.463644
vt 0.532903 0.452761
vt 0.496127 0.463652
vt 0.473075 0.486708
vt 0.462186 0.523485
vt 0.473079 0.560258
vt 0.496126 0.583313
vt 0.532911 0.594210
vt 0.569694 0.583312
vt 0.592745 0.560257
vt 0.603635 0.523477
vt 0.199792 0.025354
vt 0.215475 0.025354
vt 0.215475 0.242527
vt 0.199792 0.242527
vt 0.224281 0.025354
vt 0.224281 0.242527
vt 0.190986 0.025354
vt 0.190986 0.242527
vt 0.925522 0.012977
vt 0.914429 0.024071
vt 0.942636 0.041184
vt 0.909460 0.041183
vt 0.914424 0.058299
vt 0.925523 0.069394
vt 0.942637 0.074363
vt 0.959750 0.069391
vt 0.970845 0.058298
vt 0.975813 0.041183
vt 0.970845 0.024069
vt 0.959747 0.012977
vt 0.942635 0.008007
vt 0.921255 0.006306
vt 0.907758 0.019805
vt 0.901454 0.041176
vt 0.907750 0.062562
vt 0.921261 0.076067
vt 0.942643 0.082369
vt 0.964020 0.076060
vt 0.977520 0.062559
vt 0.983820 0.041178
vt 0.977512 0.019795
vt 0.964006 0.006301
vt 0.942632 0.000000
vt 0.901412 0.500641
vt 0.774678 0.500641
vt 0.774678 0.098589
vt 0.901412 0.098588
vt 0.658213 0.859809
vt 0.597993 0.859809
vt 0.597992 0.599229
vt 0.658212 0.599229
vt 0.675080 0.452761
vt 0.506310 0.452761
vt 0.506310 0.000000
vt 0.675080 0.000000
vt 0.337540 0.000000
vt 0.337540 0.452761
vt 0.000000 0.000000
vt 0.168770 0.000000
vt 0.168770 0.452761
vt 0.000000 0.452761
vt 0.317368 0.652048
vt 0.317368 0.483278
vt 0.347885 0.452761
vt 0.347885 0.682564
vt 0.148598 0.483278
vt 0.118082 0.452761
vt 0.148598 0.652048
vt 0.118082 0.682564
vt 0.389732 0.452761
vt 0.389732 0.682564
vt 0.464096 0.859809
vt 0.464096 0.599229
vt 0.511548 0.599229
vt 0.511548 0.859809
vt 0.076235 0.682564
vt 0.076235 0.452761
vt 0.792109 0.599229
vt 0.792109 0.859809
vt 0.744657 0.859809
vt 0.744657 0.599229
vt 0.437270 0.496935
vt 0.437270 0.638390
vt 0.565452 0.599229
vt 0.565452 0.859809
vt 0.028697 0.638390
vt 0.028697 0.496935
vt 0.690753 0.859809
vt 0.690752 0.599229
vt 0.000000 0.594216
vt 0.000000 0.541109
vt 0.465967 0.541109
vt 0.465967 0.594216
vt 0.051434 0.902769
vt 0.220204 0.902769
vt 0.242735 0.925299
vt 0.028904 0.925299
vt 0.220204 0.733999
vt 0.242735 0.711469
vt 0.051434 0.733999
vt 0.028904 0.711469
vt 0.242735 0.954203
vt 0.028904 0.954204
vt 0.271639 0.711469
vt 0.271639 0.925299
vt 0.028904 0.682565
vt 0.242735 0.682564
vt 0.000000 0.925299
vt 0.000000 0.711469
vt 0.316522 0.025354
vt 0.189788 0.025354
vt 0.316522 0.427407
vt 0.189788 0.427407
vt 0.901412 0.599229
vt 0.774678 0.599229
vt 0.676091 0.500641
vt 0.676090 0.098589
vt 0.774676 0.000002
vt 0.901410 0.000000
vt 0.999999 0.098588
vt 1.000000 0.500641
vn 0.000184 0.000000 -1.000000
vn 0.000184 0.000000 -1.000000
vn 0.000184 0.000000 -1.000000
vn 0.000184 0.000000 -1.000000
vn -0.000183 -0.000000 1.000000
vn -0.000184 0.000000 1.000000
vn -0.000183 0.000000 1.000000
vn -0.000183 0.000000 1.000000
vn -0.000184 0.000000 1.000000
vn -0.000184 0.000000 1.000000
vn -0.000184 -0.000000 1.000000
vn -0.000184 -0.000000 1.000000
vn -0.000184 -0.000000 1.000000
vn -0.000183 0.000000 1.000000
vn -0.000183 -0.000000 1.000000
vn -0.000183 0.000000 1.000000
vn -0.000183 -0.000000 1.000000
vn 0.000184 -0.000000 -1.000000
vn 0.000184 0.000000 -1.000000
vn 0.000184 -0.000000 -1.000000
vn 0.000184 0.000000 -1.000000
vn 0.000184 -0.000000 -1.000000
vn 0.000184 -0.000000 -1.000000
vn 0.000184 0.000000 -1.000000
vn 0.000184 0.000000 -1.000000
vn 0.000184 0.000000 -1.000000
vn 0.000183 0.000000 -1.000000
vn 0.000184 -0.000000 -1.000000
vn 0.000184 0.000000 -1.000000
vn 0.000184 -0.000000 -1.000000
vn -0.707109 0.707105 -0.000136
vn -0.707109 0.707105 -0.000136
vn -0.707109 0.707105 -0.000136
vn -0.707109 0.707105 -0.000136
vn -0.258818 0.965926 -0.000045
vn -0.258818 0.965926 -0.000045
vn -0.258818 0.965926 -0.000045
vn -0.258818 0.965926 -0.000045
vn 0.258819 0.965926 0.000045
vn 0.258819 0.965926 0.000045
vn 0.258819 0.965926 0.000045
vn 0.258819 0.965926 0.000045
vn 0.707105 0.707109 0.000127
vn 0.707105 0.707109 0.000127
vn 0.707105 0.707109 0.000127
vn 0.707105 0.707109 0.000127
vn 0.965927 0.258817 0.000180
vn 0.965927 0.258816 0.000180
vn 0.965927 0.258816 0.000180
vn 0.965927 0.258816 0.000180
vn 0.965927 -0.258816 0.000180
vn 0.965927 -0.258816 0.000180
vn 0.965927 -0.258816 0.000180
vn 0.965927 -0.258816 0.000180
vn 0.707104 -0.707110 0.000127
vn 0.707104 -0.707110 0.000127
vn 0.707104 -0.707110 0.000127
vn 0.707104 -0.707110 0.000127
vn 0.258819 -0.965926 0.000045
vn 0.258819 -0.965926 0.000045
vn 0.258819 -0.965926 0.000045
vn 0.258819 -0.965926 0.000045
vn -0.258818 -0.965926 -0.000047
vn -0.258818 -0.965926 -0.000047
vn -0.258818 -0.965926 -0.000047
vn -0.258818 -0.965926 -0.000047
vn -0.707109 -0.707105 -0.000136
vn -0.707108 -0.707105 -0.000136
vn -0.707108 -0.707105 -0.000136
vn -0.707108 -0.707105 -0.000136
vn -0.965926 -0.258818 -0.000186
vn -0.965926 -0.258818 -0.000186
vn -0.965926 -0.258818 -0.000186
vn -0.965926 -0.258818 -0.000186
vn -0.965926 0.258819 -0.000186
vn -0.965926 0.258819 -0.000186
vn -0.965926 0.258819 -0.000186
vn -0.965926 0.258819 -0.000186
vn 0.000184 0.000000 -1.000000
vn 0.000184 0.000000 -1.000000
vn 0.000184 0.000000 -1.000000
vn 0.000184 0.000000 -1.000000
vn 0.000000 -1.000000 -0.000000
vn 0.000000 -1.000000 -0.000000
vn 0.000000 -1.000000 -0.000000
vn 0.000000 -1.000000 -0.000000
vn -1.000000 0.000000 -0.000186
vn -1.000000 0.000000 -0.000186
vn -1.000000 0.000000 -0.000186
vn -1.000000 0.000000 -0.000186
vn 1.000000 0.000000 0.000186
vn 1.000000 0.000000 0.000186
vn 1.000000 0.000000 0.000186
vn 1.000000 0.000000 0.000186
vn 0.000184 0.000000 -1.000000
vn 0.000183 0.000000 -1.000000
vn 0.000184 -0.000000 -1.000000
vn 0.000184 0.000000 -1.000000
vn 0.000184 0.000000 -1.000000
vn 0.000184 -0.000000 -1.000000
vn 0.000184 0.000000 -1.000000
vn 0.000184 0.000000 -1.000000
vn 0.000184 -0.000000 -1.000000
vn 0.000184 0.000000 -1.000000
vn 0.000183 -0.000000 -1.000000
vn 0.000184 -0.000000 -1.000000
vn 0.000184 -0.000000 -1.000000
vn -0.707105 0.707108 -0.000140
vn -0.707105 0.707108 -0.000140
vn -0.707105 0.707108 -0.000140
vn -0.707105 0.707108 -0.000140
vn -0.258819 0.965926 -0.000049
vn -0.258819 0.965926 -0.000049
vn -0.258819 0.965926 -0.000049
vn -0.258819 0.965926 -0.000049
vn 0.258819 0.965926 0.000049
vn 0.258819 0.965926 0.000049
vn 0.258819 0.965926 0.000049
vn 0.258819 0.965926 0.000049
vn 0.707111 0.707103 0.000133
vn 0.707111 0.707103 0.000133
vn 0.707111 0.707103 0.000133
vn 0.707111 0.707103 0.000133
vn 0.965924 0.258827 0.000174
vn 0.965924 0.258827 0.000174
vn 0.965924 0.258827 0.000174
vn 0.965924 0.258827 0.000174
vn 0.965924 -0.258826 0.000174
vn 0.965924 -0.258826 0.000174
vn 0.965924 -0.258827 0.000174
vn 0.965924 -0.258827 0.000174
vn 0.707110 -0.707104 0.000134
vn 0.707110 -0.707104 0.000134
vn 0.707110 -0.707104 0.000134
vn 0.707110 -0.707104 0.000134
vn 0.258821 -0.965925 0.000049
vn 0.258821 -0.965925 0.000049
vn 0.258821 -0.965925 0.000049
vn 0.258821 -0.965925 0.000049
vn -0.258821 -0.965925 -0.000049
vn -0.258821 -0.965925 -0.000049
vn -0.258821 -0.965925 -0.000049
vn -0.258821 -0.965925 -0.000049
vn -0.707104 -0.707110 -0.000139
vn -0.707104 -0.707110 -0.000139
vn -0.707104 -0.707110 -0.000139
vn -0.707104 -0.707110 -0.000139
vn -0.965927 -0.258815 -0.000182
vn -0.965927 -0.258815 -0.000182
vn -0.965927 -0.258815 -0.000182
vn -0.965927 -0.258815 -0.000182
vn -0.965927 0.258816 -0.000182
vn -0.965927 0.258816 -0.000182
vn -0.965927 0.258816 -0.000182
vn -0.965927 0.258816 -0.000182
vn 0.000184 0.000000 -1.000000
vn 0.000184 0.000000 -1.000000
vn 0.000184 0.000000 -1.000000
vn 0.000184 0.000000 -1.000000
vn 0.000000 1.000000 0.000000
vn 0.000000 1.000000 0.000000
vn 0.000000 1.000000 0.000000
vn 0.000000 1.000000 0.000000
vn -0.000184 0.000000 1.000000
vn -0.000184 0.000000 1.000000
vn -0.000184 0.000000 1.000000
vn -0.000184 0.000000 1.000000
vn -1.000000 0.000000 -0.000183
vn -1.000000 0.000000 -0.000183
vn -1.000000 0.000000 -0.000183
vn -1.000000 0.000000 -0.000183
vn 1.000000 0.000000 0.000183
vn 1.000000 0.000000 0.000183
vn 1.000000 0.000000 0.000183
vn 1.000000 0.000000 0.000183
vn 0.000000 -1.000000 0.000001
vn 0.000000 -1.000000 0.000001
vn 0.000000 -1.000000 0.000001
vn 0.000000 -1.000000 0.000001
vn 0.000000 -1.000000 0.000000
vn 0.000000 -1.000000 0.000000
vn 0.000000 -1.000000 0.000000
vn 0.000000 -1.000000 0.000000
vn 0.000000 -1.000000 0.000000
vn 0.000000 -1.000000 0.000000
vn 0.000000 -1.000000 0.000000
vn 0.000000 -1.000000 0.000000
vn 0.000000 -1.000000 0.000000
vn 0.000000 -1.000000 0.000000
vn 0.000000 -1.000000 0.000000
vn 0.000000 -1.000000 0.000000
vn 0.000184 0.000000 -1.000000
vn 0.000184 0.000000 -1.000000
vn 0.000184 0.000000 -1.000000
vn 0.000184 0.000000 -1.000000
vn -1.000000 0.000000 -0.000183
vn -1.000000 0.000000 -0.000183
vn -0.896499 0.443046 -0.000164
vn -0.896499 0.443046 -0.000164
vn -0.000184 0.000000 1.000000
vn -0.000184 0.000000 1.000000
vn -0.000184 -0.000000 1.000000
vn -0.000184 -0.000000 1.000000
vn 1.000000 0.000000 0.000184
vn 1.000000 0.000000 0.000184
vn 0.896498 0.443048 0.000165
vn 0.896498 0.443048 0.000165
vn 0.000184 0.000000 -1.000000
vn 0.000184 0.000000 -1.000000
vn -0.653300 0.757100 -0.000120
vn -0.653300 0.757100 -0.000120
vn -0.000184 -0.000000 1.000000
vn -0.000184 -0.000000 1.000000
vn 0.653298 0.757101 0.000120
vn 0.653298 0.757101 0.000120
vn 0.544773 0.838584 0.000100
vn 0.544773 0.838584 0.000100
vn -0.000184 -0.000000 1.000000
vn -0.000184 -0.000000 1.000000
vn -0.544773 0.838584 -0.000100
vn -0.544773 0.838584 -0.000100
vn 0.000184 0.000000 -1.000000
vn 0.000184 0.000000 -1.000000
vn 0.000000 1.000000 0.000000
vn 0.000000 1.000000 0.000000
vn 0.000000 1.000000 0.000000
vn 0.000000 1.000000 0.000000
vn 0.000000 1.000000 -0.000000
vn 0.000000 1.000000 -0.000000
vn 0.000000 1.000000 -0.000000
vn 0.000000 1.000000 -0.000000
vn 0.000000 1.000000 -0.000000
vn 0.000000 1.000000 -0.000000
vn 0.000000 1.000000 -0.000000
vn 0.000000 1.000000 -0.000000
vn 0.000000 1.000000 0.000000
vn 0.000000 1.000000 0.000000
vn 0.000000 1.000000 0.000000
vn 0.000000 1.000000 0.000000
vn -0.000184 0.000000 1.000000
vn -0.000184 0.000000 1.000000
vn -0.000184 0.000000 1.000000
vn -0.000184 0.000000 1.000000
vn -1.000000 0.000000 -0.000183
vn -1.000000 0.000000 -0.000183
vn -1.000000 0.000000 -0.000183
vn -1.000000 0.000000 -0.000183
vn 0.000184 0.000000 -1.000000
vn 0.000184 0.000000 -1.000000
vn 0.000184 0.000000 -1.000000
vn 0.000184 0.000000 -1.000000
vn 1.000000 0.000000 0.000184
vn 1.000000 0.000000 0.000184
vn 1.000000 0.000000 0.000184
vn 1.000000 0.000000 0.000184
vn 0.000184 0.000000 -1.000000
vn 0.000184 0.000000 -1.000000
vn 0.000184 0.000000 -1.000000
vn 0.000184 0.000000 -1.000000
vn 0.000184 0.000000 -1.000000
vn 0.000184 0.000000 -1.000000
vn 0.000184 0.000000 -1.000000
vn 0.000184 0.000000 -1.000000
vn 0.000184 -0.000000 -1.000000
vn 0.000184 -0.000000 -1.000000
vn 0.000184 -0.000000 -1.000000
vn 0.000184 -0.000000 -1.000000
vn 0.000184 0.000000 -1.000000
vn 0.000184 0.000000 -1.000000
vn 0.000184 0.000000 -1.000000
vn 0.000184 0.000000 -1.000000
vn 0.000000 1.000000 0.000000
vn 0.000000 1.000000 0.000000
vn 0.000000 1.000000 0.000000
vn 0.000000 1.000000 0.000000
vn 1.000000 0.000000 0.000186
vn 1.000000 0.000000 0.000186
vn 1.000000 0.000000 0.000186
vn 1.000000 0.000000 0.000186
vn 0.000000 -1.000000 0.000000
vn 0.000000 -1.000000 0.000000
vn 0.000000 -1.000000 0.000000
vn 0.000000 -1.000000 0.000000
vn -1.000000 0.000000 -0.000184
vn -1.000000 0.000000 -0.000184
vn -1.000000 0.000000 -0.000184
vn -1.000000 0.000000 -0.000184
s off
g polySurface1174
usemtl lambert8SG
f 1/1/1 2/2/2 4/3/3 3/4/4
s 1
f 18//5 20//6 19//7
f 19//7 20//6 21//8
f 21//8 20//6 22//9
f 22//9 20//6 23//10
f 23//10 20//6 24//11
f 24//11 20//6 25//12
f 25//12 20//6 26//13
f 26//13 20//6 27//14
f 27//14 20//6 28//15
f 28//15 20//6 29//16
f 29//16 20//6 30//17
f 30//17 20//6 18//5
s 2
f 5/5/18 6/6/19 17/7/20
f 6/6/19 7/8/21 17/7/20
f 7/8/21 8/9/22 17/7/20
f 8/9/22 9/10/23 17/7/20
f 9/10/23 10/11/24 17/7/20
f 10/11/24 11/12/25 17/7/20
f 11/12/25 12/13/26 17/7/20
f 12/13/26 13/14/27 17/7/20
f 13/14/27 14/15/28 17/7/20
f 14/15/28 15/16/29 17/7/20
f 15/16/29 16/17/30 17/7/20
f 16/17/30 5/5/18 17/7/20
s off
f 5/5/31 18/18/32 19/19/33 6/6/34
f 6/6/35 19/19/36 21/20/37 7/8/38
f 7/8/39 21/20/40 22/21/41 8/9/42
f 8/9/43 22/21/44 23/22/45 9/10/46
f 9/10/47 23/22/48 24/23/49 10/11/50
f 10/11/51 24/23/52 25/24/53 11/12/54
f 11/12/55 25/24/56 26/25/57 12/13/58
f 12/13/59 26/25/60 27/26/61 13/14/62
f 13/14/63 27/26/64 28/27/65 14/15/66
f 14/15/67 28/27/68 29/28/69 15/16/70
f 15/16/71 29/28/72 30/29/73 16/17/74
f 16/17/75 30/29/76 18/18/77 5/5/78
f 31/30/79 32/31/80 34/32/81 33/33/82
f 37//83 38//84 32//85 31//86
f 32/31/87 38/34/88 36/35/89 34/32/90
f 37/36/91 31/30/92 33/33/93 35/37/94
s 3
f 39/38/95 40/39/96 51/40/97
f 40/39/96 41/41/98 51/40/97
f 41/41/98 42/42/99 51/40/97
f 42/42/99 43/43/100 51/40/97
f 43/43/100 44/44/101 51/40/97
f 44/44/101 45/45/102 51/40/97
f 45/45/102 46/46/103 51/40/97
f 46/46/103 47/47/104 51/40/97
f 47/47/104 48/48/105 51/40/97
f 48/48/105 49/49/106 51/40/97
f 49/49/106 50/50/107 51/40/97
f 50/50/107 39/38/95 51/40/97
s off
f 39/38/108 52/51/109 53/52/110 40/39/111
f 40/39/112 53/52/113 54/53/114 41/41/115
f 41/41/116 54/53/117 55/54/118 42/42/119
f 42/42/120 55/54/121 56/55/122 43/43/123
f 43/43/124 56/55/125 57/56/126 44/44/127
f 44/44/128 57/56/129 58/57/130 45/45/131
f 45/45/132 58/57/133 59/58/134 46/46/135
f 46/46/136 59/58/137 60/59/138 47/47/139
f 47/47/140 60/59/141 61/60/142 48/48/143
f 48/48/144 61/60/145 62/61/146 49/49/147
f 49/49/148 62/61/149 63/62/150 50/50/151
f 50/50/152 63/62/153 52/51/154 39/38/155
f 100/63/156 101/64/157 102/65/158 103/66/159
f 80/67/160 81/68/161 82/69/162 83/70/163
f 68/71/164 69/72/165 71/73/166 70/74/167
f 65/75/168 71/73/169 69/72/170 67/76/171
f 70/77/172 64/78/173 66/79/174 68/80/175
f 66/81/176 67/82/177 73/83/178 72/84/179
f 67/82/180 69/85/181 74/86/182 73/83/183
f 69/85/184 68/87/185 75/88/186 74/86/187
f 68/87/188 66/81/189 72/84/190 75/88/191
s 4
f 72/84/192 73/83/193 77/89/194 76/90/195
s 5
f 73/91/196 74/92/197 78/93/198 77/94/199
s 6
f 74/86/200 75/88/201 79/95/202 78/96/203
s 7
f 75/97/204 72/98/205 76/99/206 79/100/207
s 4
f 76/90/195 77/89/194 87/101/208 84/102/209
s 5
f 77/94/199 78/93/198 86/103/210 87/104/211
s 6
f 78/96/203 79/95/202 85/105/212 86/106/213
s 7
f 79/100/207 76/99/206 84/107/214 85/108/215
f 85/108/215 84/107/214 80/67/216 83/70/217
s 6
f 86/106/213 85/105/212 83/109/218 82/110/219
s 5
f 87/104/211 86/103/210 82/69/220 81/68/221
s 4
f 84/102/209 87/101/208 81/111/222 80/112/223
s off
f 70/113/224 71/114/225 89/115/226 88/116/227
f 71/114/228 65/117/229 90/118/230 89/115/231
f 65/117/232 64/119/233 91/120/234 90/118/235
f 64/119/236 70/113/237 88/116/238 91/120/239
f 88/116/240 89/115/241 93/121/242 92/122/243
f 89/115/244 90/118/245 94/123/246 93/124/247
f 90/118/248 91/120/249 95/125/250 94/126/251
f 91/120/252 88/116/253 92/127/254 95/128/255
f 64/78/256 65/75/257 97/129/258 96/130/259
f 65/75/260 67/76/261 98/131/262 97/129/263
f 67/76/264 66/79/265 99/132/266 98/131/267
f 66/79/268 64/78/269 96/130/270 99/132/271
f 96/133/272 97/134/273 101/64/274 100/63/275
f 97/135/276 98/136/277 102/65/278 101/64/279
f 98/137/280 99/138/281 103/66/282 102/65/283
f 99/139/284 96/140/285 100/63/286 103/66/287
