# This file uses centimeters as units for non-parametric coordinates.

mtllib team_dawujian_ditang.mtl
g default
v 37.042118 0.600330 37.074352
v 37.074352 0.600330 -37.042118
v -37.074352 0.600330 37.042118
v -37.042118 0.600330 -37.074352
v 37.882244 0.040440 37.915211
v 37.915211 0.040440 -37.882244
v -37.882244 0.040440 -37.915211
v -37.915211 0.040440 37.882244
vt 0.000000 1.000000
vt 0.000000 -0.000000
vt 1.000000 -0.000000
vt 1.000000 1.000000
vt 0.011088 0.011098
vt 0.988906 0.011098
vt 0.988906 0.988902
vt 0.011088 0.988902
vt 0.000000 0.000000
vt 0.999991 0.000000
vt 0.999991 1.000000
vt 0.000000 1.000000
vn 0.000000 -1.000000 -0.000000
vn 0.000000 -1.000000 -0.000000
vn 0.000000 -1.000000 -0.000000
vn 0.000000 -1.000000 -0.000000
vn 0.000000 1.000000 0.000000
vn 0.000000 1.000000 0.000000
vn 0.000000 1.000000 0.000000
vn 0.000000 1.000000 0.000000
vn 0.554399 0.832251 0.000241
vn 0.554399 0.832251 0.000241
vn 0.554399 0.832251 0.000241
vn 0.554399 0.832251 0.000241
vn 0.000241 0.832250 -0.554400
vn 0.000241 0.832250 -0.554400
vn 0.000241 0.832250 -0.554400
vn 0.000241 0.832250 -0.554400
vn -0.554399 0.832251 -0.000241
vn -0.554399 0.832251 -0.000241
vn -0.554399 0.832251 -0.000241
vn -0.554399 0.832251 -0.000241
vn -0.000241 0.832250 0.554400
vn -0.000241 0.832250 0.554400
vn -0.000241 0.832250 0.554400
vn -0.000241 0.832250 0.554400
s off
g polySurface1854 pCube70
usemtl lambert16SG
f 5/1/1 8/2/2 7/3/3 6/4/4
f 1/5/5 2/6/6 4/7/7 3/8/8
f 1/5/9 5/9/10 6/10/11 2/6/12
f 2/6/13 6/10/14 7/11/15 4/7/16
f 4/7/17 7/11/18 8/12/19 3/8/20
f 3/8/21 8/12/22 5/9/23 1/5/24
