# This file uses centimeters as units for non-parametric coordinates.

mtllib team_dawujian_huaping.mtl
g default
v -1.938560 0.988539 1.938555
v 1.938553 0.988539 1.938555
v -1.922859 15.004895 1.922857
v 1.922852 15.004894 1.922857
v -1.922859 15.004894 -1.922856
v 1.922852 15.004895 -1.922856
v -1.938560 0.988539 -1.938555
v 1.938553 0.988539 -1.938555
v -3.045921 7.918817 -3.045918
v -3.045921 7.918817 3.045918
v 3.045914 7.918817 3.045918
v 3.045914 7.918817 -3.045918
v -1.846954 18.557941 1.846950
v 1.846947 18.557940 1.846950
v 1.846947 18.557940 -1.846949
v -1.846954 18.557940 -1.846949
v -2.703819 21.004648 2.703816
v 2.703819 21.004646 2.703816
v 2.703819 21.004646 -2.703816
v -2.703819 21.004646 -2.703816
v -1.526451 17.085527 1.526445
v -1.526451 17.085527 -1.526444
v 1.526443 17.085527 -1.526444
v 1.526443 17.085527 1.526445
v -2.011581 21.386465 2.011579
v 2.011581 21.386465 2.011579
v 2.011581 21.386465 -2.011579
v -2.011581 21.386465 -2.011579
v -1.206429 -0.001502 -1.206423
v 1.206421 -0.001502 -1.206423
v 1.206421 -0.001502 1.206424
v -1.206429 -0.001502 1.206424
v -1.598030 16.462332 1.598028
v 1.598022 16.462332 -1.598028
v 2.035255 17.085527 0.000000
v -1.598030 16.462332 -1.598028
v -0.000008 17.085527 -2.035260
v -2.035263 17.085527 0.000000
v 0.000000 18.557943 2.462600
v 2.307381 19.859194 2.307380
v 0.000000 21.004648 3.605088
v -2.307388 19.859194 2.307380
v 2.462601 18.557943 0.000000
v 2.307381 19.859194 -2.307380
v 3.605091 21.004648 0.000000
v 0.000000 18.557943 -2.462599
v -2.307388 19.859194 -2.307380
v 0.000000 21.004648 -3.605088
v -2.462601 18.557943 0.000000
v -3.605095 21.004648 0.000000
v -1.598030 17.708727 1.598028
v -1.598030 17.708727 -1.598028
v 1.598022 17.708727 -1.598028
v 1.598022 17.708727 1.598028
v 2.760757 21.386469 2.760755
v -2.760757 21.386469 2.760755
v 2.760757 21.386469 -2.760755
v -2.760757 21.386469 -2.760755
v 1.660820 -0.001501 -1.660821
v -1.660828 -0.001501 -1.660821
v 1.660820 -0.001501 1.660821
v -1.660828 -0.001501 1.660821
v -0.000008 7.918817 4.061224
v 2.611008 11.878976 2.611011
v 0.000000 15.004894 2.563809
v -2.611015 11.878976 2.611011
v 0.000000 21.386469 2.685548
v 2.685555 21.386469 0.000000
v 0.000000 21.386469 -2.685548
v -2.685555 21.386469 0.000000
v 0.000000 15.004894 -2.563809
v 2.611008 11.878976 -2.611011
v -0.000008 7.918817 -4.061224
v -2.611015 11.878976 -2.611011
v 0.000000 -0.001501 -1.607238
v 1.607239 -0.001501 0.000000
v 0.000000 -0.001501 1.607239
v -1.607239 -0.001501 0.000000
v 4.061218 7.918817 0.000000
v 2.563805 15.004894 0.000000
v -4.061226 7.918817 0.000000
v -2.563812 15.004894 0.000000
v -2.584747 0.988539 0.000000
v -2.611015 3.958658 2.611011
v -2.611015 3.958658 -2.611011
v 0.000000 0.988539 2.584741
v 2.611008 3.958658 2.611011
v 2.584740 0.988539 0.000000
v 2.611008 3.958658 -2.611011
v 0.000000 0.988539 -2.584740
v 1.598022 16.462332 1.598028
v -0.000008 17.085527 2.035260
v 0.000000 11.878976 3.481347
v 0.000000 21.386465 0.000000
v 0.000000 11.878976 -3.481347
v 0.000000 -0.001501 0.000000
v 3.481342 11.878976 0.000000
v -3.481354 11.878976 0.000000
v -3.481354 3.958658 0.000000
v 0.000000 3.958658 3.481347
v 3.481342 3.958658 0.000000
v 0.000000 3.958658 -3.481347
v 0.000000 16.462332 2.130705
v 2.130699 16.462332 0.000000
v 0.000000 16.462332 -2.130704
v -2.130707 16.462332 0.000000
v 0.000000 19.859194 3.076507
v 3.076508 19.859194 0.000000
v 0.000000 19.859194 -3.076506
v -3.076515 19.859194 0.000000
v -2.130707 17.708727 0.000000
v 0.000000 17.708727 -2.130704
v 2.130699 17.708727 0.000000
v 0.000000 17.708727 2.130705
v 0.000000 21.386465 3.681006
v 3.681011 21.386465 0.000000
v 0.000000 21.386465 -3.681006
v -3.681015 21.386465 0.000000
v 0.000000 -0.001501 -2.214427
v 2.214424 -0.001501 0.000000
v 0.000000 -0.001501 2.214428
v -2.214432 -0.001501 0.000000
vt 0.709601 0.594497
vt 0.754616 0.588061
vt 0.748802 0.653361
vt 0.708203 0.656583
vt 0.801349 0.580319
vt 0.792406 0.652512
vt 0.769976 0.705119
vt 0.736486 0.705509
vt 0.702026 0.708847
vt 0.804761 0.015114
vt 0.825642 0.041071
vt 0.786087 0.055695
vt 0.771464 0.016141
vt 0.826669 0.074369
vt 0.800711 0.095249
vt 0.767413 0.096276
vt 0.746533 0.070319
vt 0.745506 0.037021
vt 0.629243 0.713960
vt 0.592504 0.713693
vt 0.588289 0.662816
vt 0.628050 0.662305
vt 0.556301 0.712213
vt 0.547719 0.660289
vt 0.543456 0.598333
vt 0.585360 0.601498
vt 0.626641 0.601283
vt 0.945874 0.046182
vt 0.964818 0.039888
vt 0.964818 0.065127
vt 0.939580 0.065127
vt 0.983762 0.046182
vt 0.990056 0.065127
vt 0.983762 0.084071
vt 0.964818 0.090365
vt 0.945874 0.084071
vt 0.451151 0.588405
vt 0.498192 0.593982
vt 0.507014 0.658944
vt 0.463417 0.660109
vt 0.521723 0.710468
vt 0.488251 0.711625
vt 0.667888 0.599592
vt 0.667792 0.660980
vt 0.665930 0.711997
vt 0.624136 0.492778
vt 0.657684 0.490726
vt 0.663553 0.538120
vt 0.625250 0.541022
vt 0.691078 0.486067
vt 0.702643 0.533606
vt 0.722776 0.477463
vt 0.741699 0.524204
vt 0.752931 0.463529
vt 0.782380 0.510355
vt 0.494129 0.469504
vt 0.524894 0.482031
vt 0.508149 0.529596
vt 0.466872 0.517639
vt 0.556956 0.489164
vt 0.547597 0.537186
vt 0.586853 0.539891
vt 0.590529 0.492277
vt 0.732552 0.729382
vt 0.700224 0.733862
vt 0.760796 0.726242
vt 0.759266 0.734068
vt 0.732510 0.739200
vt 0.700291 0.744294
vt 0.526755 0.734135
vt 0.498396 0.732302
vt 0.559255 0.737118
vt 0.559671 0.747542
vt 0.527250 0.743940
vt 0.500285 0.740049
vt 0.593954 0.738453
vt 0.629819 0.738942
vt 0.630063 0.749465
vt 0.594199 0.749074
vt 0.665624 0.736798
vt 0.665870 0.747418
vt 0.703562 0.769681
vt 0.737261 0.762421
vt 0.745587 0.783157
vt 0.708800 0.792934
vt 0.767253 0.751233
vt 0.780957 0.767560
vt 0.793606 0.783113
vt 0.753510 0.801303
vt 0.713682 0.812924
vt 0.493099 0.757565
vt 0.523577 0.767356
vt 0.516216 0.788455
vt 0.480164 0.774508
vt 0.557575 0.773053
vt 0.553416 0.796522
vt 0.549462 0.816717
vt 0.509140 0.806948
vt 0.468247 0.790628
vt 0.593686 0.774918
vt 0.592255 0.798072
vt 0.630664 0.775495
vt 0.631220 0.799586
vt 0.631698 0.820242
vt 0.590785 0.817927
vt 0.667576 0.773211
vt 0.670074 0.796275
vt 0.672460 0.816041
vt 0.666379 0.758132
vt 0.630307 0.760070
vt 0.701175 0.754691
vt 0.594185 0.759799
vt 0.559267 0.757968
vt 0.526623 0.753696
vt 0.498898 0.747290
vt 0.733588 0.748916
vt 0.760986 0.741237
vt 0.755937 0.807026
vt 0.715152 0.818978
vt 0.796888 0.788399
vt 0.840303 0.035651
vt 0.841783 0.081324
vt 0.811716 0.000000
vt 0.506980 0.812776
vt 0.465213 0.796060
vt 0.548274 0.822832
vt 0.806132 0.109911
vt 0.760459 0.111390
vt 0.590316 0.824128
vt 0.631841 0.826474
vt 0.731872 0.075739
vt 0.730392 0.030066
vt 0.673215 0.822214
vt 0.766043 0.001479
vt 0.591995 0.475816
vt 0.623748 0.475963
vt 0.560700 0.472669
vt 0.964818 0.030354
vt 0.990898 0.039047
vt 0.938738 0.039047
vt 0.531214 0.466329
vt 0.504531 0.455012
vt 0.999591 0.065127
vt 0.990898 0.091206
vt 0.715739 0.462069
vt 0.741871 0.449533
vt 0.686576 0.469763
vt 0.964818 0.099900
vt 0.938738 0.091206
vt 0.655460 0.474351
vt 0.930045 0.065127
vn -0.707107 0.000000 0.707107
vn -0.000000 0.000000 1.000000
vn 0.000000 0.196506 0.980503
vn -0.691876 0.206431 0.691877
vn 0.707107 -0.000000 0.707107
vn 0.691877 0.206431 0.691876
vn 0.674971 0.298044 0.674970
vn 0.000000 0.282429 0.959288
vn -0.674970 0.298044 0.674971
vn 0.000000 1.000000 0.000000
vn 0.000000 1.000000 0.000000
vn 0.000000 1.000000 0.000000
vn 0.000000 1.000000 0.000000
vn 0.000000 1.000000 0.000000
vn 0.000000 1.000000 0.000000
vn 0.000000 1.000000 -0.000000
vn 0.000000 1.000000 -0.000000
vn 0.000000 1.000000 -0.000000
vn -0.674970 0.298045 -0.674971
vn -0.000000 0.282429 -0.959288
vn 0.000000 0.196506 -0.980503
vn -0.691876 0.206431 -0.691877
vn 0.674971 0.298044 -0.674970
vn 0.691877 0.206431 -0.691876
vn 0.707107 0.000000 -0.707107
vn -0.000000 0.000000 -1.000000
vn -0.707107 0.000000 -0.707107
vn 0.000000 -1.000000 0.000000
vn 0.000000 -1.000000 -0.000000
vn -0.000000 -1.000000 -0.000000
vn -0.000000 -1.000000 -0.000000
vn -0.000000 -1.000000 0.000000
vn 0.000000 -1.000000 -0.000000
vn -0.000000 -1.000000 -0.000000
vn 0.000000 -1.000000 0.000000
vn 0.000000 -1.000000 -0.000000
vn 1.000000 0.000000 0.000000
vn 0.980503 0.196506 0.000000
vn 0.959288 0.282429 0.000000
vn -1.000000 -0.000000 0.000000
vn -0.980503 0.196506 0.000000
vn -0.959288 0.282430 -0.000000
vn -0.670718 -0.316656 -0.670720
vn -0.953677 -0.300833 0.000000
vn -0.980257 -0.197729 0.000000
vn -0.691697 -0.207628 -0.691698
vn -0.670719 -0.316656 0.670720
vn -0.691697 -0.207628 0.691698
vn 0.000000 -0.300833 0.953677
vn 0.000000 -0.197729 0.980257
vn 0.670720 -0.316656 0.670719
vn 0.691698 -0.207628 0.691697
vn 0.953677 -0.300832 0.000000
vn 0.980257 -0.197729 0.000000
vn 0.670720 -0.316656 -0.670719
vn 0.691698 -0.207628 -0.691697
vn 0.000000 -0.197729 -0.980257
vn 0.000000 -0.300833 -0.953677
vn 0.000001 0.251631 0.967823
vn -0.681447 0.266942 0.681448
vn 0.681448 0.266942 0.681447
vn 0.707108 -0.000000 0.707106
vn -0.000002 -0.000000 1.000000
vn -0.707108 0.000000 0.707106
vn 0.967823 0.251630 0.000000
vn 0.681448 0.266942 -0.681448
vn 0.707108 0.000000 -0.707106
vn 1.000000 0.000000 -0.000000
vn 0.000001 0.251631 -0.967823
vn -0.681447 0.266942 -0.681448
vn -0.707108 0.000000 -0.707105
vn -0.000002 0.000000 -1.000000
vn -0.967823 0.251630 -0.000000
vn -1.000000 0.000000 0.000000
vn -0.638786 -0.428839 0.638788
vn -0.000000 -0.407486 0.913211
vn -0.000000 -0.422409 0.906405
vn -0.633952 -0.442954 0.633953
vn 0.638787 -0.428838 0.638787
vn 0.633952 -0.442956 0.633952
vn 0.655558 -0.374818 0.655558
vn -0.000000 -0.359080 0.933307
vn -0.655557 -0.374816 0.655559
vn 0.913210 -0.407488 -0.000000
vn 0.906405 -0.422411 -0.000000
vn 0.638787 -0.428838 -0.638787
vn 0.633952 -0.442956 -0.633952
vn 0.655558 -0.374818 -0.655558
vn 0.933306 -0.359081 -0.000000
vn 0.000000 -0.407486 -0.913211
vn -0.000000 -0.422410 -0.906405
vn -0.638786 -0.428839 -0.638787
vn -0.633952 -0.442955 -0.633952
vn -0.655557 -0.374816 -0.655559
vn -0.000000 -0.359080 -0.933307
vn -0.913210 -0.407489 0.000000
vn -0.906405 -0.422409 0.000000
vn -0.933307 -0.359079 0.000000
vn -0.957406 -0.288746 0.000000
vn -0.672924 -0.307156 -0.672925
vn -0.672924 -0.307156 0.672925
vn 0.000001 -0.288746 -0.957406
vn 0.672924 -0.307158 -0.672925
vn 0.957405 -0.288748 -0.000000
vn 0.672924 -0.307158 0.672924
vn 0.000001 -0.288747 0.957406
vn 0.000000 0.860553 0.509362
vn -0.374546 0.848192 0.374547
vn 0.374547 0.848191 0.374549
vn 0.509363 0.860552 0.000000
vn 0.374547 0.848191 -0.374549
vn -0.000000 0.860552 -0.509363
vn -0.374547 0.848191 -0.374548
vn -0.509362 0.860552 0.000000
vn 0.000000 -0.592976 -0.805220
vn -0.572019 -0.587867 -0.572020
vn 0.572020 -0.587867 -0.572019
vn 0.805220 -0.592976 0.000000
vn 0.572020 -0.587867 0.572019
vn 0.000000 -0.592976 0.805220
vn -0.572019 -0.587867 0.572020
vn -0.805219 -0.592977 0.000000
s 1
g polySurface1920 polySurface1512 polySurface1479
usemtl lambert20SG
f 10/1/1 63/2/2 93/3/3 66/4/4
f 63/2/2 11/5/5 64/6/6 93/3/3
f 93/3/3 64/6/6 4/7/7 65/8/8
f 66/4/4 93/3/3 65/8/8 3/9/9
f 25/10/10 67/11/11 94/12/12 70/13/13
f 67/11/11 26/14/14 68/15/15 94/12/12
f 94/12/12 68/15/15 27/16/16 69/17/17
f 70/13/13 94/12/12 69/17/17 28/18/18
f 5/19/19 71/20/20 95/21/21 74/22/22
f 71/20/20 6/23/23 72/24/24 95/21/21
f 95/21/21 72/24/24 12/25/25 73/26/26
f 74/22/22 95/21/21 73/26/26 9/27/27
f 29/28/28 75/29/29 96/30/30 78/31/31
f 75/29/29 30/32/32 76/33/33 96/30/30
f 96/30/30 76/33/33 31/34/34 77/35/35
f 78/31/31 96/30/30 77/35/35 32/36/36
f 11/37/5 79/38/37 97/39/38 64/40/6
f 79/38/37 12/25/25 72/24/24 97/39/38
f 97/39/38 72/24/24 6/23/23 80/41/39
f 64/40/6 97/39/38 80/41/39 4/42/7
f 9/27/27 81/43/40 98/44/41 74/22/22
f 81/43/40 10/1/1 66/4/4 98/44/41
f 98/44/41 66/4/4 3/9/9 82/45/42
f 74/22/22 98/44/41 82/45/42 5/19/19
f 7/46/43 83/47/44 99/48/45 85/49/46
f 83/47/44 1/50/47 84/51/48 99/48/45
f 99/48/45 84/51/48 10/1/1 81/43/40
f 85/49/46 99/48/45 81/43/40 9/27/27
f 1/50/47 86/52/49 100/53/50 84/51/48
f 86/52/49 2/54/51 87/55/52 100/53/50
f 100/53/50 87/55/52 11/5/5 63/2/2
f 84/51/48 100/53/50 63/2/2 10/1/1
f 2/56/51 88/57/53 101/58/54 87/59/52
f 88/57/53 8/60/55 89/61/56 101/58/54
f 101/58/54 89/61/56 12/25/25 79/38/37
f 87/59/52 101/58/54 79/38/37 11/37/5
f 9/27/27 73/26/26 102/62/57 85/49/46
f 73/26/26 12/25/25 89/61/56 102/62/57
f 102/62/57 89/61/56 8/60/55 90/63/58
f 85/49/46 102/62/57 90/63/58 7/46/43
f 3/9/9 65/8/8 103/64/59 33/65/60
f 65/8/8 4/7/7 91/66/61 103/64/59
f 103/64/59 91/66/61 24/67/62 92/68/63
f 33/65/60 103/64/59 92/68/63 21/69/64
f 4/42/7 80/41/39 104/70/65 91/71/61
f 80/41/39 6/23/23 34/72/66 104/70/65
f 104/70/65 34/72/66 23/73/67 35/74/68
f 91/71/61 104/70/65 35/74/68 24/75/62
f 6/23/23 71/20/20 105/76/69 34/72/66
f 71/20/20 5/19/19 36/77/70 105/76/69
f 105/76/69 36/77/70 22/78/71 37/79/72
f 34/72/66 105/76/69 37/79/72 23/73/67
f 5/19/19 82/45/42 106/80/73 36/77/70
f 82/45/42 3/9/9 33/65/60 106/80/73
f 106/80/73 33/65/60 21/69/64 38/81/74
f 36/77/70 106/80/73 38/81/74 22/78/71
f 13/82/75 39/83/76 107/84/77 42/85/78
f 39/83/76 14/86/79 40/87/80 107/84/77
f 107/84/77 40/87/80 18/88/81 41/89/82
f 42/85/78 107/84/77 41/89/82 17/90/83
f 14/91/79 43/92/84 108/93/85 40/94/80
f 43/92/84 15/95/86 44/96/87 108/93/85
f 108/93/85 44/96/87 19/97/88 45/98/89
f 40/94/80 108/93/85 45/98/89 18/99/81
f 15/95/86 46/100/90 109/101/91 44/96/87
f 46/100/90 16/102/92 47/103/93 109/101/91
f 109/101/91 47/103/93 20/104/94 48/105/95
f 44/96/87 109/101/91 48/105/95 19/97/88
f 16/102/92 49/106/96 110/107/97 47/103/93
f 49/106/96 13/82/75 42/85/78 110/107/97
f 110/107/97 42/85/78 17/90/83 50/108/98
f 47/103/93 110/107/97 50/108/98 20/104/94
f 22/78/71 38/81/74 111/109/99 52/110/100
f 38/81/74 21/69/64 51/111/101 111/109/99
f 111/109/99 51/111/101 13/82/75 49/106/96
f 52/110/100 111/109/99 49/106/96 16/102/92
f 23/73/67 37/79/72 112/112/102 53/113/103
f 37/79/72 22/78/71 52/110/100 112/112/102
f 112/112/102 52/110/100 16/102/92 46/100/90
f 53/113/103 112/112/102 46/100/90 15/95/86
f 24/75/62 35/74/68 113/114/104 54/115/105
f 35/74/68 23/73/67 53/113/103 113/114/104
f 113/114/104 53/113/103 15/95/86 43/92/84
f 54/115/105 113/114/104 43/92/84 14/91/79
f 21/69/64 92/68/63 114/116/106 51/111/101
f 92/68/63 24/67/62 54/117/105 114/116/106
f 114/116/106 54/117/105 14/86/79 39/83/76
f 51/111/101 114/116/106 39/83/76 13/82/75
f 17/90/83 41/89/82 115/118/107 56/119/108
f 41/89/82 18/88/81 55/120/109 115/118/107
f 115/121/107 55/122/109 26/14/14 67/11/11
f 56/123/108 115/121/107 67/11/11 25/10/10
f 18/99/81 45/98/89 116/124/110 55/125/109
f 45/98/89 19/97/88 57/126/111 116/124/110
f 116/127/110 57/128/111 27/16/16 68/15/15
f 55/122/109 116/127/110 68/15/15 26/14/14
f 19/97/88 48/105/95 117/129/112 57/126/111
f 48/105/95 20/104/94 58/130/113 117/129/112
f 117/131/112 58/132/113 28/18/18 69/17/17
f 57/128/111 117/131/112 69/17/17 27/16/16
f 20/104/94 50/108/98 118/133/114 58/130/113
f 50/108/98 17/90/83 56/119/108 118/133/114
f 118/134/114 56/123/108 25/10/10 70/13/13
f 58/132/113 118/134/114 70/13/13 28/18/18
f 7/46/43 90/63/58 119/135/115 60/136/116
f 90/63/58 8/60/55 59/137/117 119/135/115
f 119/138/115 59/139/117 30/32/32 75/29/29
f 60/140/116 119/138/115 75/29/29 29/28/28
f 8/60/55 88/57/53 120/141/118 59/137/117
f 88/57/53 2/56/51 61/142/119 120/141/118
f 120/143/118 61/144/119 31/34/34 76/33/33
f 59/139/117 120/143/118 76/33/33 30/32/32
f 2/54/51 86/52/49 121/145/120 61/146/119
f 86/52/49 1/50/47 62/147/121 121/145/120
f 121/148/120 62/149/121 32/36/36 77/35/35
f 61/144/119 121/148/120 77/35/35 31/34/34
f 1/50/47 83/47/44 122/150/122 62/147/121
f 83/47/44 7/46/43 60/136/116 122/150/122
f 122/151/122 60/140/116 29/28/28 78/31/31
f 62/149/121 122/151/122 78/31/31 32/36/36
