# This file uses centimeters as units for non-parametric coordinates.

mtllib youhua10.mtl
g default
v 10.579315 -8.880524 -0.339005
v 10.579315 -8.880890 0.329094
v -10.579315 -8.880890 0.329094
v -10.579315 -8.880524 -0.339005
v -10.579315 8.880524 0.339005
v -10.579315 8.880890 -0.329086
v 10.579315 8.880524 0.339005
v 10.579315 8.880890 -0.329086
v 9.801178 -8.364227 0.127899
v 9.801178 8.364075 0.137238
v -9.801170 8.364075 0.137238
v -9.801170 -8.364227 0.127899
v 10.024063 8.511932 0.338799
v 10.024063 -8.512299 0.329292
v -10.024055 8.511932 0.338799
v -10.024055 -8.512299 0.329292
vt 0.437156 0.335076
vt 0.442199 0.339094
vt 0.442290 0.593675
vt 0.438417 0.595757
vt 0.645327 0.593675
vt 0.649020 0.595757
vt 0.645238 0.339094
vt 0.650281 0.335076
vt 0.451515 0.348453
vt 0.637210 0.348453
vt 0.637316 0.584225
vt 0.451408 0.584225
vt 0.639033 0.345773
vt 0.448950 0.345773
vt 0.639574 0.586906
vt 0.448225 0.586906
vn 0.000000 -1.000000 -0.000548
vn 0.000000 -1.000000 -0.000548
vn 0.000000 -1.000000 -0.000548
vn 0.000000 -1.000000 -0.000548
vn -1.000000 -0.000000 0.000000
vn -1.000000 -0.000000 0.000000
vn -1.000000 -0.000000 0.000000
vn -1.000000 -0.000000 0.000000
vn 0.000000 1.000000 0.000548
vn 0.000000 1.000000 0.000548
vn 0.000000 1.000000 0.000548
vn 0.000000 1.000000 0.000548
vn 1.000000 -0.000000 0.000000
vn 1.000000 -0.000000 0.000000
vn 1.000000 -0.000000 0.000000
vn 1.000000 -0.000000 0.000000
vn 0.000000 -0.000558 1.000000
vn 0.000000 -0.000558 1.000000
vn 0.000000 -0.000558 1.000000
vn 0.000000 -0.000558 1.000000
vn -0.000007 -0.000558 1.000000
vn -0.000007 -0.000558 1.000000
vn -0.000007 -0.000558 1.000000
vn -0.000007 -0.000558 1.000000
vn 0.000000 -0.000559 1.000000
vn 0.000000 -0.000559 1.000000
vn 0.000000 -0.000559 1.000000
vn 0.000000 -0.000559 1.000000
vn 0.000007 -0.000558 1.000000
vn 0.000007 -0.000558 1.000000
vn 0.000007 -0.000558 1.000000
vn 0.000007 -0.000558 1.000000
vn 0.000000 -0.000538 1.000000
vn 0.000000 -0.000538 1.000000
vn 0.000000 -0.000538 1.000000
vn 0.000000 -0.000538 1.000000
vn -0.670582 -0.000414 0.741835
vn -0.670582 -0.000414 0.741835
vn -0.670582 -0.000414 0.741835
vn -0.670582 -0.000414 0.741835
vn 0.000000 -0.806317 0.591483
vn 0.000000 -0.806317 0.591483
vn 0.000000 -0.806317 0.591483
vn 0.000000 -0.806317 0.591483
vn 0.670582 -0.000414 0.741835
vn 0.670582 -0.000414 0.741835
vn 0.670582 -0.000414 0.741835
vn 0.670582 -0.000414 0.741835
vn 0.000000 0.805673 0.592360
vn 0.000000 0.805673 0.592360
vn 0.000000 0.805673 0.592360
vn 0.000000 0.805673 0.592360
s off
g polySurface1877 polySurface1861
usemtl lambert25SG
f 1/1/1 2/2/2 3/3/3 4/4/4
f 4/4/5 3/3/6 5/5/7 6/6/8
f 6/6/9 5/5/10 7/7/11 8/8/12
f 8/8/13 7/7/14 2/2/15 1/1/16
f 9/9/17 10/10/18 11/11/19 12/12/20
f 2/2/21 7/7/22 13/13/23 14/14/24
f 7/7/25 5/5/26 15/15/27 13/13/28
f 5/5/29 3/3/30 16/16/31 15/15/32
f 3/3/33 2/2/34 14/14/35 16/16/36
f 14/14/37 13/13/38 10/10/39 9/9/40
f 13/13/41 15/15/42 11/11/43 10/10/44
f 15/15/45 16/16/46 12/12/47 11/11/48
f 16/16/49 14/14/50 9/9/51 12/12/52
