# This file uses centimeters as units for non-parametric coordinates.

mtllib youhua3.mtl
g default
v -8.880524 -9.567106 -0.339005
v -8.880890 -9.567106 0.329094
v -8.880890 9.567106 0.329094
v -8.880524 9.567106 -0.339005
v 8.880524 9.567106 0.339005
v 8.880890 9.567106 -0.329086
v 8.880524 -9.567106 0.339005
v 8.880890 -9.567106 -0.329086
v -8.364227 -8.788969 0.127899
v 8.364075 -8.788969 0.137238
v 8.364075 8.788961 0.137238
v -8.364227 8.788961 0.127899
v 8.511932 -9.011854 0.338799
v -8.512299 -9.011854 0.329292
v 8.511932 9.011847 0.338799
v -8.512299 9.011847 0.329292
vt 0.655734 0.335076
vt 0.660777 0.339094
vt 0.660870 0.569171
vt 0.656995 0.571104
vt 0.863904 0.569171
vt 0.867598 0.571104
vt 0.863816 0.339094
vt 0.868859 0.335076
vt 0.670093 0.348454
vt 0.855788 0.348454
vt 0.855899 0.559876
vt 0.669981 0.559876
vt 0.857611 0.345773
vt 0.667529 0.345773
vt 0.858151 0.562557
vt 0.666805 0.562557
vn -1.000000 0.000000 -0.000548
vn -1.000000 0.000000 -0.000548
vn -1.000000 0.000000 -0.000548
vn -1.000000 0.000000 -0.000548
vn 0.000000 1.000000 0.000000
vn 0.000000 1.000000 0.000000
vn 0.000000 1.000000 0.000000
vn 0.000000 1.000000 0.000000
vn 1.000000 0.000000 0.000548
vn 1.000000 0.000000 0.000548
vn 1.000000 0.000000 0.000548
vn 1.000000 0.000000 0.000548
vn 0.000000 -1.000000 0.000000
vn 0.000000 -1.000000 0.000000
vn 0.000000 -1.000000 0.000000
vn 0.000000 -1.000000 0.000000
vn -0.000558 0.000000 1.000000
vn -0.000558 0.000000 1.000000
vn -0.000558 0.000000 1.000000
vn -0.000558 0.000000 1.000000
vn -0.000558 0.000007 1.000000
vn -0.000558 0.000007 1.000000
vn -0.000558 0.000007 1.000000
vn -0.000558 0.000007 1.000000
vn -0.000559 0.000000 1.000000
vn -0.000559 0.000000 1.000000
vn -0.000559 0.000000 1.000000
vn -0.000559 0.000000 1.000000
vn -0.000558 -0.000007 1.000000
vn -0.000558 -0.000007 1.000000
vn -0.000558 -0.000007 1.000000
vn -0.000558 -0.000007 1.000000
vn -0.000538 0.000000 1.000000
vn -0.000538 0.000000 1.000000
vn -0.000538 0.000000 1.000000
vn -0.000538 0.000000 1.000000
vn -0.000414 0.670581 0.741836
vn -0.000414 0.670581 0.741836
vn -0.000414 0.670581 0.741836
vn -0.000414 0.670581 0.741836
vn -0.806317 0.000000 0.591484
vn -0.806317 0.000000 0.591484
vn -0.806317 0.000000 0.591484
vn -0.806317 0.000000 0.591484
vn -0.000414 -0.670583 0.741834
vn -0.000414 -0.670583 0.741834
vn -0.000414 -0.670583 0.741834
vn -0.000414 -0.670583 0.741834
vn 0.805674 0.000000 0.592360
vn 0.805674 0.000000 0.592360
vn 0.805674 0.000000 0.592360
vn 0.805674 0.000000 0.592360
s off
g polySurface1882 polySurface1861
usemtl lambert25SG
f 1/1/1 2/2/2 3/3/3 4/4/4
f 4/4/5 3/3/6 5/5/7 6/6/8
f 6/6/9 5/5/10 7/7/11 8/8/12
f 8/8/13 7/7/14 2/2/15 1/1/16
f 9/9/17 10/10/18 11/11/19 12/12/20
f 2/2/21 7/7/22 13/13/23 14/14/24
f 7/7/25 5/5/26 15/15/27 13/13/28
f 5/5/29 3/3/30 16/16/31 15/15/32
f 3/3/33 2/2/34 14/14/35 16/16/36
f 14/14/37 13/13/38 10/10/39 9/9/40
f 13/13/41 15/15/42 11/11/43 10/10/44
f 15/15/45 16/16/46 12/12/47 11/11/48
f 16/16/49 14/14/50 9/9/51 12/12/52
