# This file uses centimeters as units for non-parametric coordinates.

mtllib huaping.mtl
g default
v -0.545964 0.281548 0.545963
v 0.545963 0.281548 0.545963
v -0.541543 4.229031 0.541542
v 0.541542 4.229031 0.541542
v -0.541543 4.229031 -0.541542
v 0.541542 4.229031 -0.541542
v -0.545964 0.281548 -0.545963
v 0.545963 0.281548 -0.545963
v -0.857835 2.233350 -0.857834
v -0.857835 2.233350 0.857834
v 0.857833 2.233350 0.857834
v 0.857833 2.233350 -0.857834
v -0.520165 5.229691 0.520164
v 0.520164 5.229691 0.520164
v 0.520164 5.229691 -0.520164
v -0.520165 5.229691 -0.520164
v -0.761489 5.918767 0.761487
v 0.761487 5.918766 0.761487
v 0.761487 5.918766 -0.761487
v -0.761489 5.918766 -0.761487
v -0.429900 4.815009 0.429899
v -0.429900 4.815009 -0.429899
v 0.429898 4.815009 -0.429899
v 0.429898 4.815009 0.429899
v -0.566530 6.026300 0.566529
v 0.566530 6.026300 0.566529
v 0.566530 6.026300 -0.566529
v -0.566530 6.026300 -0.566529
v -0.339771 0.002718 -0.339770
v 0.339770 0.002718 -0.339770
v 0.339770 0.002718 0.339770
v -0.339771 0.002718 0.339770
v -0.450060 4.639495 0.450059
v 0.450059 4.639495 -0.450059
v 0.573198 4.815009 0.000000
v -0.450060 4.639495 -0.450059
v -0.000001 4.815009 -0.573199
v -0.573200 4.815009 0.000000
v -0.000001 5.229691 0.693552
v 0.649837 5.596168 0.649837
v -0.000001 5.918767 1.015316
v -0.649838 5.596168 0.649837
v 0.693552 5.229691 0.000000
v 0.649837 5.596168 -0.649837
v 1.015317 5.918767 0.000000
v -0.000001 5.229691 -0.693552
v -0.649838 5.596168 -0.649837
v -0.000001 5.918767 -1.015316
v -0.693553 5.229691 0.000000
v -1.015318 5.918767 0.000000
v -0.450060 4.990523 0.450059
v -0.450060 4.990523 -0.450059
v 0.450059 4.990523 -0.450059
v 0.450059 4.990523 0.450059
v 0.777524 6.026300 0.777523
v -0.777524 6.026300 0.777523
v 0.777524 6.026300 -0.777523
v -0.777524 6.026300 -0.777523
v 0.467744 0.002719 -0.467744
v -0.467745 0.002719 -0.467744
v 0.467744 0.002719 0.467744
v -0.467745 0.002719 0.467744
v -0.000001 2.233350 1.143779
v 0.735349 3.348666 0.735350
v -0.000001 4.229031 0.722056
v -0.735350 3.348666 0.735350
v -0.000000 6.026300 0.756342
v 0.756343 6.026300 0.000000
v -0.000000 6.026300 -0.756342
v -0.756343 6.026300 0.000000
v -0.000001 4.229031 -0.722056
v 0.735349 3.348666 -0.735349
v -0.000001 2.233350 -1.143779
v -0.735350 3.348666 -0.735349
v -0.000001 0.002719 -0.452653
v 0.452653 0.002719 0.000000
v -0.000001 0.002719 0.452653
v -0.452654 0.002719 0.000000
v 1.143778 2.233350 0.000000
v 0.722056 4.229031 0.000000
v -1.143780 2.233350 0.000000
v -0.722057 4.229031 0.000000
v -0.727952 0.281548 0.000000
v -0.735350 1.118034 0.735350
v -0.735350 1.118034 -0.735349
v -0.000001 0.281548 0.727951
v 0.735349 1.118034 0.735350
v 0.727951 0.281548 0.000000
v 0.735349 1.118034 -0.735349
v -0.000001 0.281548 -0.727951
v 0.450059 4.639495 0.450059
v -0.000001 4.815009 0.573199
v -0.000001 3.348666 0.980466
v 0.000000 6.026300 0.000000
v -0.000001 3.348666 -0.980466
v -0.000001 0.002719 0.000000
v 0.980465 3.348666 0.000000
v -0.980467 3.348666 0.000000
v -0.980467 1.118034 0.000000
v -0.000001 1.118034 0.980466
v 0.980465 1.118034 0.000000
v -0.000001 1.118034 -0.980466
v -0.000001 4.639495 0.600079
v 0.600078 4.639495 0.000000
v -0.000001 4.639495 -0.600079
v -0.600080 4.639495 0.000000
v -0.000001 5.596168 0.866449
v 0.866450 5.596168 0.000000
v -0.000001 5.596168 -0.866449
v -0.866451 5.596168 0.000000
v -0.600080 4.990523 0.000000
v -0.000001 4.990523 -0.600079
v 0.600078 4.990523 0.000000
v -0.000001 4.990523 0.600079
v -0.000000 6.026300 1.036697
v 1.036698 6.026300 0.000000
v -0.000000 6.026300 -1.036697
v -1.036699 6.026300 0.000000
v -0.000001 0.002719 -0.623658
v 0.623658 0.002719 0.000000
v -0.000001 0.002719 0.623658
v -0.623660 0.002719 0.000000
vt 0.375000 0.000000
vt 0.375000 1.000000
vt 0.625000 0.000000
vt 0.625000 1.000000
vt 0.375000 0.250000
vt 0.625000 0.250000
vt 0.375000 0.500000
vt 0.125000 0.250000
vt 0.625000 0.500000
vt 0.875000 0.250000
vt 0.125000 0.000000
vt 0.375000 0.750000
vt 0.875000 0.000000
vt 0.625000 0.750000
vt 0.375000 0.625000
vt 0.125000 0.125000
vt 0.375000 0.125000
vt 0.625000 0.125000
vt 0.625000 0.625000
vt 0.875000 0.125000
vt 0.406250 0.281250
vt 0.593750 0.281250
vt 0.593750 0.468750
vt 0.406250 0.468750
vt 0.406250 0.281250
vt 0.593750 0.281250
vt 0.593750 0.468750
vt 0.406250 0.468750
vt 0.406250 0.281250
vt 0.406250 0.468750
vt 0.593750 0.468750
vt 0.593750 0.281250
vt 0.430556 0.305556
vt 0.569444 0.305556
vt 0.569444 0.444444
vt 0.430556 0.444444
vt 0.430556 0.805556
vt 0.569444 0.805556
vt 0.569444 0.944444
vt 0.430556 0.944445
vt 0.500000 0.187500
vt 0.500000 0.375000
vt 0.500000 0.562500
vt 0.500000 0.875000
vt 0.750000 0.187500
vt 0.250000 0.187500
vt 0.250000 0.062500
vt 0.500000 0.062500
vt 0.750000 0.062500
vt 0.500000 0.687500
vt 0.500000 0.250000
vt 0.625000 0.375000
vt 0.500000 0.500000
vt 0.375000 0.375000
vt 0.500000 0.250000
vt 0.625000 0.375000
vt 0.500000 0.500000
vt 0.375000 0.375000
vt 0.375000 0.375000
vt 0.500000 0.500000
vt 0.625000 0.375000
vt 0.500000 0.250000
vt 0.500000 0.250000
vt 0.625000 0.375000
vt 0.500000 0.500000
vt 0.375000 0.375000
vt 0.500000 0.750000
vt 0.625000 0.875000
vt 0.500000 1.000000
vt 0.375000 0.875000
vt 0.500000 0.125000
vt 0.625000 0.187500
vt 0.500000 0.234375
vt 0.375000 0.187500
vt 0.500000 0.281250
vt 0.593750 0.375000
vt 0.500000 0.468750
vt 0.406250 0.375000
vt 0.500000 0.515625
vt 0.625000 0.562500
vt 0.875000 0.187500
vt 0.500000 0.625000
vt 0.375000 0.562500
vt 0.125000 0.187500
vt 0.500000 0.781250
vt 0.593750 0.875000
vt 0.500000 0.968750
vt 0.406250 0.875000
vt 0.750000 0.125000
vt 0.750000 0.250000
vt 0.625000 0.375000
vt 0.250000 0.125000
vt 0.250000 0.250000
vt 0.375000 0.375000
vt 0.250000 0.000000
vt 0.375000 0.875000
vt 0.375000 0.062500
vt 0.125000 0.062500
vt 0.375000 0.687500
vt 0.500000 0.000000
vt 0.500000 1.000000
vt 0.625000 0.062500
vt 0.750000 0.000000
vt 0.625000 0.875000
vt 0.875000 0.062500
vt 0.625000 0.687500
vt 0.500000 0.734375
vt 0.593750 0.281250
vt 0.500000 0.250000
vt 0.406250 0.281250
vt 0.593750 0.468750
vt 0.625000 0.375000
vt 0.406250 0.468750
vt 0.500000 0.500000
vt 0.375000 0.375000
vt 0.500000 0.250000
vt 0.593750 0.281250
vt 0.500000 0.250000
vt 0.406250 0.281250
vt 0.625000 0.375000
vt 0.593750 0.468750
vt 0.625000 0.375000
vt 0.500000 0.500000
vt 0.406250 0.468750
vt 0.500000 0.500000
vt 0.375000 0.375000
vt 0.375000 0.375000
vt 0.406250 0.281250
vt 0.406250 0.468750
vt 0.593750 0.468750
vt 0.593750 0.281250
vt 0.593750 0.281250
vt 0.406250 0.281250
vt 0.593750 0.468750
vt 0.406250 0.468750
vt 0.593750 0.781250
vt 0.406250 0.781250
vt 0.593750 0.968750
vt 0.406250 0.968750
vn -0.707107 0.000000 0.707107
vn -0.000000 0.000000 1.000000
vn 0.000000 0.191638 0.981466
vn -0.692975 0.198925 0.692975
vn 0.707107 0.000000 0.707107
vn 0.692975 0.198925 0.692975
vn 0.675002 0.297899 0.675002
vn 0.000000 0.282329 0.959318
vn -0.675002 0.297899 0.675002
vn 0.000000 1.000000 -0.000000
vn 0.000000 1.000000 -0.000000
vn 0.000000 1.000000 0.000000
vn 0.000000 1.000000 0.000000
vn 0.000000 1.000000 0.000000
vn -0.000000 1.000000 0.000000
vn 0.000000 1.000000 -0.000000
vn 0.000000 1.000000 -0.000000
vn 0.000000 1.000000 -0.000000
vn -0.675002 0.297899 -0.675002
vn 0.000000 0.282329 -0.959318
vn 0.000000 0.191638 -0.981466
vn -0.692975 0.198925 -0.692975
vn 0.675002 0.297899 -0.675002
vn 0.692975 0.198925 -0.692975
vn 0.707107 0.000000 -0.707107
vn -0.000000 0.000000 -1.000000
vn -0.707107 0.000000 -0.707107
vn 0.000000 -1.000000 0.000000
vn 0.000000 -1.000000 0.000000
vn 0.000000 -1.000000 0.000000
vn -0.000000 -1.000000 0.000000
vn -0.000000 -1.000000 0.000000
vn 0.000000 -1.000000 -0.000000
vn -0.000000 -1.000000 -0.000000
vn 0.000000 -1.000000 -0.000000
vn 0.000000 -1.000000 -0.000000
vn 1.000000 0.000000 0.000000
vn 0.981466 0.191637 -0.000000
vn 0.959318 0.282329 0.000000
vn -1.000000 -0.000000 0.000000
vn -0.981466 0.191638 -0.000000
vn -0.959318 0.282329 -0.000000
vn -0.671268 -0.314322 -0.671268
vn -0.954190 -0.299201 -0.000000
vn -0.981269 -0.192641 -0.000000
vn -0.692849 -0.199799 -0.692849
vn -0.671268 -0.314322 0.671268
vn -0.692849 -0.199799 0.692849
vn 0.000000 -0.299201 0.954190
vn 0.000000 -0.192641 0.981269
vn 0.671268 -0.314322 0.671268
vn 0.692849 -0.199799 0.692849
vn 0.954190 -0.299201 0.000000
vn 0.981269 -0.192640 0.000000
vn 0.671268 -0.314322 -0.671268
vn 0.692849 -0.199799 -0.692849
vn 0.000000 -0.192641 -0.981269
vn 0.000000 -0.299202 -0.954190
vn 0.000000 0.255156 0.966900
vn -0.680426 0.272103 0.680427
vn 0.680426 0.272104 0.680426
vn 0.707106 0.000000 0.707107
vn -0.000000 0.000000 1.000000
vn -0.707107 0.000000 0.707107
vn 0.966900 0.255157 0.000000
vn 0.680426 0.272104 -0.680426
vn 0.707106 -0.000000 -0.707107
vn 1.000000 0.000000 0.000000
vn -0.000000 0.255156 -0.966900
vn -0.680426 0.272103 -0.680426
vn -0.707107 -0.000000 -0.707107
vn -0.000001 -0.000000 -1.000000
vn -0.966900 0.255156 -0.000000
vn -1.000000 -0.000000 0.000000
vn -0.637689 -0.432091 0.637691
vn 0.000000 -0.409778 0.912185
vn -0.000000 -0.422077 0.906560
vn -0.634121 -0.442470 0.634122
vn 0.637689 -0.432092 0.637690
vn 0.634121 -0.442471 0.634122
vn 0.659070 -0.362289 0.659071
vn -0.000000 -0.351308 0.936260
vn -0.659071 -0.362288 0.659070
vn 0.912185 -0.409779 -0.000000
vn 0.906560 -0.422078 -0.000000
vn 0.637690 -0.432092 -0.637690
vn 0.634121 -0.442471 -0.634122
vn 0.659070 -0.362289 -0.659070
vn 0.936259 -0.351309 0.000000
vn 0.000000 -0.409778 -0.912185
vn 0.000000 -0.422077 -0.906560
vn -0.637689 -0.432091 -0.637691
vn -0.634121 -0.442470 -0.634122
vn -0.659070 -0.362288 -0.659070
vn -0.000000 -0.351308 -0.936260
vn -0.912185 -0.409779 0.000000
vn -0.906560 -0.422078 0.000000
vn -0.936260 -0.351308 0.000000
vn -0.955255 -0.295782 0.000000
vn -0.670530 -0.317454 -0.670531
vn -0.670530 -0.317454 0.670531
vn -0.000000 -0.295782 -0.955255
vn 0.670530 -0.317455 -0.670531
vn 0.955255 -0.295784 -0.000000
vn 0.670530 -0.317455 0.670531
vn -0.000000 -0.295782 0.955255
vn 0.000001 0.879472 0.475950
vn -0.337704 0.878585 0.337705
vn 0.337705 0.878584 0.337705
vn 0.475951 0.879472 -0.000000
vn 0.337705 0.878584 -0.337705
vn 0.000001 0.879472 -0.475951
vn -0.337704 0.878584 -0.337706
vn -0.475950 0.879472 0.000000
vn 0.000000 -0.578091 -0.815972
vn -0.581387 -0.569191 -0.581387
vn 0.581387 -0.569190 -0.581387
vn 0.815972 -0.578091 -0.000000
vn 0.581387 -0.569190 0.581387
vn 0.000000 -0.578091 0.815972
vn -0.581387 -0.569190 0.581387
vn -0.815972 -0.578091 0.000000
s 1
g pCube20
usemtl initialShadingGroup
f 10/17/1 63/71/2 93/41/3 66/74/4
f 63/71/2 11/18/5 64/72/6 93/41/3
f 93/41/3 64/72/6 4/6/7 65/73/8
f 66/74/4 93/41/3 65/73/8 3/5/9
f 25/33/10 67/75/11 94/42/12 70/78/13
f 67/75/11 26/34/14 68/76/15 94/42/12
f 94/42/12 68/76/15 27/35/16 69/77/17
f 70/78/13 94/42/12 69/77/17 28/36/18
f 5/7/19 71/79/20 95/43/21 74/83/22
f 71/79/20 6/9/23 72/80/24 95/43/21
f 95/43/21 72/80/24 12/19/25 73/82/26
f 74/83/22 95/43/21 73/82/26 9/15/27
f 29/37/28 75/85/29 96/44/30 78/88/31
f 75/85/29 30/38/32 76/86/33 96/44/30
f 96/44/30 76/86/33 31/39/34 77/87/35
f 78/88/31 96/44/30 77/87/35 32/40/36
f 11/18/5 79/89/37 97/45/38 64/72/6
f 79/89/37 12/20/25 72/81/24 97/45/38
f 97/45/38 72/81/24 6/10/23 80/90/39
f 64/72/6 97/45/38 80/90/39 4/6/7
f 9/16/27 81/92/40 98/46/41 74/84/22
f 81/92/40 10/17/1 66/74/4 98/46/41
f 98/46/41 66/74/4 3/5/9 82/93/42
f 74/84/22 98/46/41 82/93/42 5/8/19
f 7/11/43 83/95/44 99/47/45 85/98/46
f 83/95/44 1/1/47 84/97/48 99/47/45
f 99/47/45 84/97/48 10/17/1 81/92/40
f 85/98/46 99/47/45 81/92/40 9/16/27
f 1/1/47 86/100/49 100/48/50 84/97/48
f 86/100/49 2/3/51 87/102/52 100/48/50
f 100/48/50 87/102/52 11/18/5 63/71/2
f 84/97/48 100/48/50 63/71/2 10/17/1
f 2/3/51 88/103/53 101/49/54 87/102/52
f 88/103/53 8/13/55 89/105/56 101/49/54
f 101/49/54 89/105/56 12/20/25 79/89/37
f 87/102/52 101/49/54 79/89/37 11/18/5
f 9/15/27 73/82/26 102/50/57 85/99/46
f 73/82/26 12/19/25 89/106/56 102/50/57
f 102/50/57 89/106/56 8/14/55 90/107/58
f 85/99/46 102/50/57 90/107/58 7/12/43
f 3/5/9 65/73/8 103/51/59 33/110/60
f 65/73/8 4/6/7 91/108/61 103/51/59
f 103/51/59 91/108/61 24/32/62 92/109/63
f 33/110/60 103/51/59 92/109/63 21/29/64
f 4/6/7 80/91/39 104/52/65 91/108/61
f 80/91/39 6/9/23 34/111/66 104/52/65
f 104/52/65 34/111/66 23/31/67 35/112/68
f 91/108/61 104/52/65 35/112/68 24/32/62
f 6/9/23 71/79/20 105/53/69 34/111/66
f 71/79/20 5/7/19 36/113/70 105/53/69
f 105/53/69 36/113/70 22/30/71 37/114/72
f 34/111/66 105/53/69 37/114/72 23/31/67
f 5/7/19 82/94/42 106/54/73 36/113/70
f 82/94/42 3/5/9 33/110/60 106/54/73
f 106/54/73 33/110/60 21/29/64 38/115/74
f 36/113/70 106/54/73 38/115/74 22/30/71
f 13/21/75 39/116/76 107/55/77 42/119/78
f 39/116/76 14/22/79 40/117/80 107/55/77
f 107/55/77 40/117/80 18/26/81 41/118/82
f 42/119/78 107/55/77 41/118/82 17/25/83
f 14/22/79 43/120/84 108/56/85 40/117/80
f 43/120/84 15/23/86 44/121/87 108/56/85
f 108/56/85 44/121/87 19/27/88 45/122/89
f 40/117/80 108/56/85 45/122/89 18/26/81
f 15/23/86 46/123/90 109/57/91 44/121/87
f 46/123/90 16/24/92 47/124/93 109/57/91
f 109/57/91 47/124/93 20/28/94 48/125/95
f 44/121/87 109/57/91 48/125/95 19/27/88
f 16/24/92 49/126/96 110/58/97 47/124/93
f 49/126/96 13/21/75 42/119/78 110/58/97
f 110/58/97 42/119/78 17/25/83 50/127/98
f 47/124/93 110/58/97 50/127/98 20/28/94
f 22/30/71 38/115/74 111/59/99 52/129/100
f 38/115/74 21/29/64 51/128/101 111/59/99
f 111/59/99 51/128/101 13/21/75 49/126/96
f 52/129/100 111/59/99 49/126/96 16/24/92
f 23/31/67 37/114/72 112/60/102 53/130/103
f 37/114/72 22/30/71 52/129/100 112/60/102
f 112/60/102 52/129/100 16/24/92 46/123/90
f 53/130/103 112/60/102 46/123/90 15/23/86
f 24/32/62 35/112/68 113/61/104 54/131/105
f 35/112/68 23/31/67 53/130/103 113/61/104
f 113/61/104 53/130/103 15/23/86 43/120/84
f 54/131/105 113/61/104 43/120/84 14/22/79
f 21/29/64 92/109/63 114/62/106 51/128/101
f 92/109/63 24/32/62 54/131/105 114/62/106
f 114/62/106 54/131/105 14/22/79 39/116/76
f 51/128/101 114/62/106 39/116/76 13/21/75
f 17/25/83 41/118/82 115/63/107 56/133/108
f 41/118/82 18/26/81 55/132/109 115/63/107
f 115/63/107 55/132/109 26/34/14 67/75/11
f 56/133/108 115/63/107 67/75/11 25/33/10
f 18/26/81 45/122/89 116/64/110 55/132/109
f 45/122/89 19/27/88 57/134/111 116/64/110
f 116/64/110 57/134/111 27/35/16 68/76/15
f 55/132/109 116/64/110 68/76/15 26/34/14
f 19/27/88 48/125/95 117/65/112 57/134/111
f 48/125/95 20/28/94 58/135/113 117/65/112
f 117/65/112 58/135/113 28/36/18 69/77/17
f 57/134/111 117/65/112 69/77/17 27/35/16
f 20/28/94 50/127/98 118/66/114 58/135/113
f 50/127/98 17/25/83 56/133/108 118/66/114
f 118/66/114 56/133/108 25/33/10 70/78/13
f 58/135/113 118/66/114 70/78/13 28/36/18
f 7/12/43 90/107/58 119/67/115 60/137/116
f 90/107/58 8/14/55 59/136/117 119/67/115
f 119/67/115 59/136/117 30/38/32 75/85/29
f 60/137/116 119/67/115 75/85/29 29/37/28
f 8/14/55 88/104/53 120/68/118 59/136/117
f 88/104/53 2/4/51 61/138/119 120/68/118
f 120/68/118 61/138/119 31/39/34 76/86/33
f 59/136/117 120/68/118 76/86/33 30/38/32
f 2/4/51 86/101/49 121/69/120 61/138/119
f 86/101/49 1/2/47 62/139/121 121/69/120
f 121/69/120 62/139/121 32/40/36 77/87/35
f 61/138/119 121/69/120 77/87/35 31/39/34
f 1/2/47 83/96/44 122/70/122 62/139/121
f 83/96/44 7/12/43 60/137/116 122/70/122
f 122/70/122 60/137/116 29/37/28 78/88/31
f 62/139/121 122/70/122 78/88/31 32/40/36
