# This file uses centimeters as units for non-parametric coordinates.

mtllib team_xiaowujian_duanbubang.mtl
g default
v -9.542513 0.047516 13.430294
v 9.542513 0.047516 13.430294
v -9.542513 1.838501 13.430294
v 9.542513 1.838501 13.430294
v -9.542513 1.838501 -13.430294
v 9.542513 1.838501 -13.430294
v -9.542513 0.047516 -13.430294
v 9.542513 0.047516 -13.430294
v 0.000000 1.838501 10.708567
v 0.000000 1.838501 -13.430294
v 0.000000 0.047516 -13.430294
v 0.000000 0.047516 13.430294
v 4.771257 1.838501 7.435643
v 4.771257 1.838501 -13.430294
v 4.771257 0.047516 -13.430294
v 4.771257 0.047516 10.648086
v -4.771257 1.838501 13.430294
v -4.771257 1.838501 -13.430294
v -4.771257 0.047516 -13.430294
v -4.771257 0.047516 13.430294
v -9.542513 1.838501 0.000000
v -9.542513 0.047516 0.000000
v -4.771257 0.047516 0.000000
v 0.000000 0.047516 0.000000
v 4.771257 0.047516 0.000000
v 9.542513 0.047516 0.000000
v 9.542513 1.838501 0.000000
v 4.771257 1.838501 0.000000
v 0.000000 1.838501 0.000000
v -4.771257 1.838501 0.000000
v -7.156885 1.838501 6.867786
v -7.156885 1.838501 0.000000
v -7.156885 1.838501 -13.430294
v -7.156885 0.047516 -13.430294
v -7.156885 0.047516 0.000000
v -7.156885 0.047516 9.589978
v -1.328041 1.838501 6.006439
v -2.385628 1.838501 0.000000
v -2.385628 1.838501 -13.430294
v -2.385628 0.047516 -13.430294
v -2.385628 0.047516 0.000000
v -1.328041 0.047516 10.025228
v -3.049650 1.838501 13.124685
v -3.578442 1.838501 0.000000
v -3.578442 1.838501 -13.430294
v -3.578442 0.047516 -13.430294
v -3.578442 0.047516 0.000000
v -3.049650 0.047516 13.124685
vt 0.031860 0.809540
vt 0.013837 0.818094
vt 0.000000 0.814182
vt 0.028471 0.802400
vt 0.210388 0.574723
vt 0.220958 0.603628
vt 0.221066 0.633821
vt 0.210525 0.633822
vt 0.210444 0.692879
vt 0.220968 0.692884
vt 0.220951 0.700782
vt 0.210428 0.700773
vt 0.387100 0.634924
vt 0.376575 0.634766
vt 0.377239 0.592483
vt 0.388028 0.575717
vt 0.303935 0.574305
vt 0.302786 0.633692
vt 0.294858 0.633584
vt 0.296048 0.574147
vt 0.202622 0.633817
vt 0.202489 0.574722
vt 0.252078 0.587808
vt 0.274036 0.600093
vt 0.273855 0.633486
vt 0.252809 0.633691
vt 0.252484 0.700757
vt 0.252529 0.692855
vt 0.273491 0.692882
vt 0.273432 0.700786
vt 0.345949 0.575058
vt 0.344980 0.634291
vt 0.323900 0.633980
vt 0.324707 0.586991
vt 0.047740 0.854543
vt 0.045384 0.840360
vt 0.068875 0.846855
vt 0.071899 0.862801
vt 0.294437 0.693003
vt 0.294380 0.700911
vt 0.086328 0.829843
vt 0.091845 0.835502
vt 0.231291 0.574879
vt 0.238868 0.576232
vt 0.236886 0.633810
vt 0.231614 0.633814
vt 0.231473 0.700779
vt 0.231492 0.692881
vt 0.236753 0.692876
vt 0.236730 0.700774
vt 0.366985 0.575388
vt 0.366046 0.634608
vt 0.360781 0.634529
vt 0.359370 0.576618
vt 0.018088 0.839127
vt 0.024714 0.834818
vt 0.028920 0.841286
vt 0.022295 0.845595
vt 0.202543 0.692870
vt 0.386316 0.694165
vt 0.375794 0.694015
vt 0.365278 0.693866
vt 0.360021 0.693792
vt 0.344258 0.693573
vt 0.323264 0.693295
vt 0.302298 0.693062
vt 0.246556 0.607571
vt 0.242187 0.633782
vt 0.242013 0.692869
vt 0.241985 0.700768
vt 0.355516 0.634449
vt 0.354765 0.693719
vt 0.351559 0.590167
vt 0.038057 0.873807
vt 0.037450 0.854402
vn 0.866506 0.302030 0.397423
vn 0.866506 0.302030 0.397423
vn 0.866506 0.302030 0.397423
vn 0.866506 0.302030 0.397423
vn 0.000000 1.000000 0.000000
vn 0.000000 1.000000 0.000000
vn 0.000000 1.000000 0.000000
vn 0.000000 1.000000 0.000000
vn 0.000000 0.000000 -1.000000
vn 0.000000 0.000000 -1.000000
vn 0.000000 0.000000 -1.000000
vn 0.000000 0.000000 -1.000000
vn 0.000000 -1.000000 0.000000
vn 0.000000 -1.000000 0.000000
vn 0.000000 -1.000000 0.000000
vn 0.000000 -1.000000 0.000000
vn 1.000000 0.000000 0.000000
vn 1.000000 0.000000 0.000000
vn 1.000000 0.000000 0.000000
vn 1.000000 0.000000 0.000000
vn -1.000000 0.000000 0.000000
vn -1.000000 0.000000 0.000000
vn -1.000000 0.000000 0.000000
vn -1.000000 0.000000 0.000000
vn 0.000000 1.000000 0.000000
vn 0.000000 1.000000 0.000000
vn 0.000000 1.000000 0.000000
vn 0.000000 1.000000 0.000000
vn 0.000000 0.000000 -1.000000
vn 0.000000 0.000000 -1.000000
vn 0.000000 0.000000 -1.000000
vn 0.000000 0.000000 -1.000000
vn 0.000000 -1.000000 0.000000
vn 0.000000 -1.000000 0.000000
vn 0.000000 -1.000000 0.000000
vn 0.000000 -1.000000 0.000000
vn 0.311589 0.813503 0.491045
vn 0.311589 0.813503 0.491045
vn 0.311589 0.813503 0.491045
vn 0.311589 0.813503 0.491045
vn 0.000000 1.000000 0.000000
vn 0.000000 1.000000 0.000000
vn 0.000000 1.000000 0.000000
vn 0.000000 1.000000 0.000000
vn 0.000000 0.000000 -1.000000
vn 0.000000 0.000000 -1.000000
vn 0.000000 0.000000 -1.000000
vn 0.000000 0.000000 -1.000000
vn 0.000000 -1.000000 0.000000
vn 0.000000 -1.000000 0.000000
vn 0.000000 -1.000000 0.000000
vn 0.000000 -1.000000 0.000000
vn -0.564977 0.550893 0.614262
vn -0.564977 0.550893 0.614262
vn -0.564977 0.550893 0.614262
vn -0.564977 0.550893 0.614262
vn 0.000000 1.000000 -0.000000
vn 0.000000 1.000000 -0.000000
vn 0.000000 1.000000 -0.000000
vn 0.000000 1.000000 -0.000000
vn 0.000000 0.000000 -1.000000
vn 0.000000 0.000000 -1.000000
vn 0.000000 0.000000 -1.000000
vn 0.000000 0.000000 -1.000000
vn 0.000000 -1.000000 0.000000
vn 0.000000 -1.000000 0.000000
vn 0.000000 -1.000000 0.000000
vn 0.000000 -1.000000 0.000000
vn 0.174782 0.000000 0.984607
vn 0.174782 0.000000 0.984607
vn 0.174782 0.000000 0.984607
vn 0.174782 0.000000 0.984607
vn -1.000000 0.000000 0.000000
vn -1.000000 0.000000 0.000000
vn -1.000000 0.000000 0.000000
vn -1.000000 0.000000 0.000000
vn 0.000000 -1.000000 0.000000
vn 0.000000 -1.000000 0.000000
vn 0.000000 -1.000000 0.000000
vn 0.000000 -1.000000 0.000000
vn 0.000000 -1.000000 0.000000
vn 0.000000 -1.000000 0.000000
vn 0.000000 -1.000000 0.000000
vn 0.000000 -1.000000 0.000000
vn 0.000000 -1.000000 0.000000
vn 0.000000 -1.000000 0.000000
vn 0.000000 -1.000000 0.000000
vn 0.000000 -1.000000 0.000000
vn 0.000000 -1.000000 0.000000
vn 0.000000 -1.000000 0.000000
vn 0.000000 -1.000000 0.000000
vn 0.000000 -1.000000 0.000000
vn 1.000000 0.000000 0.000000
vn 1.000000 0.000000 0.000000
vn 1.000000 0.000000 0.000000
vn 1.000000 0.000000 0.000000
vn 0.000000 1.000000 0.000000
vn 0.000000 1.000000 0.000000
vn 0.000000 1.000000 0.000000
vn 0.000000 1.000000 0.000000
vn 0.000000 1.000000 0.000000
vn 0.000000 1.000000 0.000000
vn 0.000000 1.000000 0.000000
vn 0.000000 1.000000 0.000000
vn 0.000000 1.000000 0.000000
vn 0.000000 1.000000 0.000000
vn 0.000000 1.000000 0.000000
vn 0.000000 1.000000 0.000000
vn 0.000000 1.000000 0.000000
vn 0.000000 1.000000 0.000000
vn 0.000000 1.000000 0.000000
vn 0.000000 1.000000 0.000000
vn 0.000000 1.000000 0.000000
vn 0.000000 1.000000 0.000000
vn 0.000000 1.000000 0.000000
vn 0.000000 1.000000 0.000000
vn 0.000000 1.000000 0.000000
vn 0.000000 1.000000 0.000000
vn 0.000000 1.000000 0.000000
vn 0.000000 1.000000 0.000000
vn 0.000000 0.000000 -1.000000
vn 0.000000 0.000000 -1.000000
vn 0.000000 0.000000 -1.000000
vn 0.000000 0.000000 -1.000000
vn 0.000000 -1.000000 0.000000
vn 0.000000 -1.000000 0.000000
vn 0.000000 -1.000000 0.000000
vn 0.000000 -1.000000 0.000000
vn 0.000000 -1.000000 0.000000
vn 0.000000 -1.000000 0.000000
vn 0.000000 -1.000000 0.000000
vn 0.000000 -1.000000 0.000000
vn -0.866506 0.302030 0.397423
vn -0.866506 0.302030 0.397423
vn -0.866506 0.302030 0.397423
vn -0.866506 0.302030 0.397423
vn 0.000000 1.000000 0.000000
vn 0.000000 1.000000 0.000000
vn 0.000000 1.000000 0.000000
vn 0.000000 1.000000 0.000000
vn 0.000000 1.000000 0.000000
vn 0.000000 1.000000 0.000000
vn 0.000000 1.000000 0.000000
vn 0.000000 1.000000 0.000000
vn 0.000000 0.000000 -1.000000
vn 0.000000 0.000000 -1.000000
vn 0.000000 0.000000 -1.000000
vn 0.000000 0.000000 -1.000000
vn 0.000000 -1.000000 0.000000
vn 0.000000 -1.000000 0.000000
vn 0.000000 -1.000000 0.000000
vn 0.000000 -1.000000 0.000000
vn 0.000000 -1.000000 0.000000
vn 0.000000 -1.000000 0.000000
vn 0.000000 -1.000000 0.000000
vn 0.000000 -1.000000 0.000000
vn -0.819941 0.505504 0.268629
vn -0.819941 0.505504 0.268629
vn -0.819941 0.505504 0.268629
vn -0.819941 0.505504 0.268629
vn 0.000000 1.000000 0.000000
vn 0.000000 1.000000 0.000000
vn 0.000000 1.000000 0.000000
vn 0.000000 1.000000 0.000000
vn 0.000000 1.000000 0.000000
vn 0.000000 1.000000 0.000000
vn 0.000000 1.000000 0.000000
vn 0.000000 1.000000 0.000000
vn 0.000000 0.000000 -1.000000
vn 0.000000 0.000000 -1.000000
vn 0.000000 0.000000 -1.000000
vn 0.000000 0.000000 -1.000000
vn 0.000000 -1.000000 0.000000
vn 0.000000 -1.000000 0.000000
vn 0.000000 -1.000000 0.000000
vn 0.000000 -1.000000 0.000000
vn 0.000000 -1.000000 0.000000
vn 0.000000 -1.000000 0.000000
vn 0.000000 -1.000000 0.000000
vn 0.000000 -1.000000 0.000000
vn 0.892109 0.337289 0.300628
vn 0.892109 0.337289 0.300628
vn 0.892109 0.337289 0.300628
vn 0.892109 0.337289 0.300628
s off
g polySurface1699 polySurface1530
usemtl lambert24SG
f 1/1/1 36/2/2 31/3/3 3/4/4
f 3/5/5 31/6/6 32/7/7 21/8/8
f 5/9/9 33/10/10 34/11/11 7/12/12
f 22/13/13 35/14/14 36/15/15 1/16/16
f 2/17/17 26/18/18 27/19/19 4/20/20
f 22/21/21 1/22/22 3/5/23 21/8/24
f 9/23/25 13/24/26 28/25/27 29/26/28
f 11/27/29 10/28/30 14/29/31 15/30/32
f 12/31/33 24/32/34 25/33/35 16/34/36
f 9/35/37 12/36/38 16/37/39 13/38/40
f 13/24/41 4/20/42 27/19/43 28/25/44
f 15/30/45 14/29/46 6/39/47 8/40/48
f 16/34/49 25/33/50 26/18/51 2/17/52
f 13/38/53 16/37/54 2/41/55 4/42/56
f 17/43/57 43/44/58 44/45/59 30/46/60
f 19/47/61 18/48/62 45/49/63 46/50/64
f 20/51/65 23/52/66 47/53/67 48/54/68
f 17/55/69 20/56/70 48/57/71 43/58/72
f 7/59/73 22/21/74 21/8/75 5/9/76
f 7/60/77 34/61/78 35/14/79 22/13/80
f 47/53/81 23/52/82 19/62/83 46/63/84
f 25/33/85 24/32/86 11/64/87 15/65/88
f 26/18/89 25/33/90 15/65/91 8/66/92
f 27/19/93 26/18/94 8/66/95 6/39/96
f 28/25/97 27/19/98 6/39/99 14/29/100
f 29/26/101 28/25/102 14/29/103 10/28/104
f 30/46/105 44/45/106 45/49/107 18/48/108
f 21/8/109 32/7/110 33/10/111 5/9/112
f 31/6/113 17/43/114 30/46/115 32/7/116
f 33/10/117 32/7/118 30/46/119 18/48/120
f 34/11/121 33/10/122 18/48/123 19/47/124
f 35/14/125 34/61/126 19/62/127 23/52/128
f 36/15/129 35/14/130 23/52/131 20/51/132
f 31/3/133 36/2/134 20/56/135 17/55/136
f 37/67/137 9/23/138 29/26/139 38/68/140
f 39/69/141 38/68/142 29/26/143 10/28/144
f 40/70/145 39/69/146 10/28/147 11/27/148
f 24/32/149 41/71/150 40/72/151 11/64/152
f 42/73/153 41/71/154 24/32/155 12/31/156
f 37/74/157 42/75/158 12/36/159 9/35/160
f 43/44/161 37/67/162 38/68/163 44/45/164
f 45/49/165 44/45/166 38/68/167 39/69/168
f 46/50/169 45/49/170 39/69/171 40/70/172
f 41/71/173 47/53/174 46/63/175 40/72/176
f 48/54/177 47/53/178 41/71/179 42/73/180
f 43/58/181 48/57/182 42/75/183 37/74/184
