# This file uses centimeters as units for non-parametric coordinates.

mtllib team_xiaowujian_bolisuipian.mtl
g default
v -13.346981 0.068115 -1.081919
v 13.346980 0.068115 -1.081919
v 13.346980 26.762100 -1.081919
v 7.903229 26.762100 -1.081919
v -13.346981 1.349487 -1.081919
v 5.122572 18.788940 -1.081919
v 1.042639 18.727188 -1.081919
v -2.627357 16.952545 -0.561137
v 0.276344 10.486847 -0.814256
v -3.661737 9.981369 -1.091776
v -7.542936 10.360992 -1.081919
v -7.606659 5.551285 -1.081919
v -10.573719 4.132797 -1.081919
v -13.346981 0.068115 0.570994
v 13.346980 0.068115 0.570994
v 13.346980 26.762100 0.570994
v 7.903229 26.762100 0.570994
v 5.122572 18.788940 0.570994
v 1.042639 18.727188 0.570994
v -2.627357 16.952545 1.091776
v 0.276344 10.486847 0.838657
v -3.661737 9.981369 0.561137
v -7.542936 10.360992 0.570994
v -7.606659 5.551285 0.570994
v -10.573719 4.132797 0.570994
v -13.346981 1.349487 0.570994
vt 0.463529 0.422683
vt 0.448778 0.420552
vt 0.446323 0.400418
vt 0.540584 0.385184
vt 0.426534 0.378527
vt 0.426442 0.372829
vt 0.435297 0.392230
vt 0.479926 0.428303
vt 0.544373 0.500052
vt 0.504732 0.468051
vt 0.488085 0.465770
vt 0.474617 0.459770
vt 0.522708 0.501334
vt 0.642660 0.406336
vt 0.642755 0.427794
vt 0.625401 0.426379
vt 0.548047 0.384879
vt 0.667991 0.381142
vt 0.668090 0.386861
vt 0.655860 0.399638
vt 0.607787 0.429070
vt 0.551673 0.500122
vt 0.587125 0.465562
vt 0.621542 0.457231
vt 0.605210 0.465308
vt 0.575743 0.500291
vt 0.427474 0.365503
vt 0.541645 0.377894
vt 0.544065 0.507960
vt 0.519322 0.507149
vt 0.500489 0.474514
vt 0.485282 0.472360
vt 0.469065 0.462931
vt 0.473451 0.432390
vt 0.460286 0.429324
vt 0.444028 0.425237
vt 0.439754 0.404928
vt 0.429347 0.396466
vt 0.420088 0.381078
vt 0.418833 0.375296
vn -0.003924 -0.006433 0.999972
vn 0.000762 0.001546 0.999999
vn 0.000520 0.001056 0.999999
vn 0.010158 0.003321 0.999943
vn 0.000000 0.000000 1.000000
vn 0.000000 0.000000 1.000000
vn 0.000000 0.000000 1.000000
vn 0.007038 -0.006792 0.999952
vn 0.011922 0.005238 0.999915
vn 0.015618 0.006866 0.999855
vn 0.060708 0.026765 0.997797
vn 0.060708 0.026765 0.997797
vn 0.000000 0.000000 1.000000
vn -0.000520 -0.001056 -0.999999
vn -0.000762 -0.001546 -0.999999
vn 0.003924 0.006433 -0.999972
vn -0.010158 -0.003321 -0.999943
vn 0.000000 0.000000 -1.000000
vn 0.000000 0.000000 -1.000000
vn 0.000000 0.000000 -1.000000
vn -0.007038 0.006792 -0.999952
vn -0.011922 -0.005238 -0.999915
vn -0.015618 -0.006866 -0.999855
vn -0.060708 -0.026765 -0.997797
vn -0.060708 -0.026765 -0.997797
vn 0.000000 0.000000 -1.000000
vn 0.000000 -1.000000 0.000000
vn 0.000000 -1.000000 0.000000
vn 0.000000 -1.000000 0.000000
vn 0.000000 -1.000000 0.000000
vn 1.000000 0.000000 0.000000
vn 1.000000 0.000000 0.000000
vn 1.000000 0.000000 0.000000
vn 1.000000 0.000000 0.000000
vn 0.000000 1.000000 0.000000
vn 0.000000 1.000000 0.000000
vn 0.000000 1.000000 0.000000
vn 0.000000 1.000000 0.000000
vn -0.944225 0.329301 0.000000
vn -0.944225 0.329301 0.000000
vn -0.944225 0.329301 0.000000
vn -0.944225 0.329301 0.000000
vn -0.015134 0.999885 0.000000
vn -0.015134 0.999885 0.000000
vn -0.015134 0.999885 0.000000
vn -0.015134 0.999885 0.000000
vn -0.435330 0.900271 0.000000
vn -0.435330 0.900271 0.000000
vn -0.435330 0.900271 0.000000
vn -0.435330 0.900271 0.000000
vn -0.912231 -0.409677 0.000000
vn -0.912231 -0.409677 0.000000
vn -0.912231 -0.409677 0.000000
vn -0.912231 -0.409677 0.000000
vn -0.127312 0.991863 0.000000
vn -0.127312 0.991863 0.000000
vn -0.127312 0.991863 0.000000
vn -0.127312 0.991863 0.000000
vn 0.097346 0.995251 0.000000
vn 0.097346 0.995251 0.000000
vn 0.097346 0.995251 0.000000
vn 0.097346 0.995251 0.000000
vn -0.999912 0.013248 0.000000
vn -0.999912 0.013248 0.000000
vn -0.999912 0.013248 0.000000
vn -0.999912 0.013248 0.000000
vn -0.431322 0.902198 0.000000
vn -0.431322 0.902198 0.000000
vn -0.590653 0.806926 0.000000
vn -0.590653 0.806926 0.000000
vn -0.708384 0.705827 0.000000
vn -0.708384 0.705827 0.000000
vn -1.000000 0.000000 0.000000
vn -1.000000 0.000000 0.000000
vn -1.000000 0.000000 0.000000
vn -1.000000 0.000000 0.000000
s 1
g polySurface1703 polySurface1530
usemtl lambert24SG
f 22/1/1 23/2/2 24/3/3 15/4/4
f 26/5/5 14/6/6 15/4/4 25/7/7
f 25/7/7 15/4/4 24/3/3
f 22/1/1 15/4/4 21/8/8
f 21/8/8 15/4/4 16/9/9 18/10/10
f 19/11/11 20/12/12 21/8/8 18/10/10
f 16/9/9 17/13/13 18/10/10
s 2
f 12/14/14 11/15/15 10/16/16 2/17/17
f 2/17/17 1/18/18 5/19/19 13/20/20
f 13/20/20 12/14/14 2/17/17
f 10/16/16 9/21/21 2/17/17
f 3/22/22 2/17/17 9/21/21 6/23/23
f 9/21/21 8/24/24 7/25/25 6/23/23
f 6/23/23 4/26/26 3/22/22
s off
f 14/6/27 1/27/28 2/28/29 15/4/30
f 15/4/31 2/17/32 3/22/33 16/9/34
f 16/9/35 3/29/36 4/30/37 17/13/38
f 17/13/39 4/30/40 6/31/41 18/10/42
f 18/10/43 6/31/44 7/32/45 19/11/46
f 19/11/47 7/32/48 8/33/49 20/12/50
f 8/33/51 9/34/52 21/8/53 20/12/54
f 9/34/55 10/35/56 22/1/57 21/8/58
f 22/1/59 10/35/60 11/36/61 23/2/62
f 23/2/63 11/36/64 12/37/65 24/3/66
s 3
f 24/3/67 12/37/68 13/38/69 25/7/70
f 25/7/70 13/38/69 5/39/71 26/5/72
s off
f 26/5/73 5/39/74 1/40/75 14/6/76
