# This file uses centimeters as units for non-parametric coordinates.

mtllib team_xiaowujian_zhongbaichui.mtl
g default
v 2.326393 0.682673 6.102095
v 1.343132 0.682673 5.118845
v -0.000008 0.682673 7.445234
v -0.000008 0.682673 4.758951
v -1.343147 0.682673 5.118845
v -2.326385 0.682673 6.102095
v -2.686287 0.682673 7.445234
v -2.326385 0.682673 8.788378
v -1.343147 0.682673 9.771624
v -0.000008 0.682673 10.131521
v 1.343132 0.682673 9.771624
v 2.326393 0.682673 8.788378
v 2.686287 0.682673 7.445234
v 2.326393 0.010448 6.102095
v 1.343132 0.010448 5.118845
v -0.000008 0.010448 4.758951
v -1.343147 0.010448 5.118845
v -2.326385 0.010448 6.102095
v -2.686287 0.010448 7.445234
v -2.326385 0.010448 8.788378
v -1.343147 0.010448 9.771624
v -0.000008 0.010448 10.131521
v 1.343132 0.010448 9.771624
v 2.326393 0.010448 8.788378
v 2.686287 0.010448 7.445234
v 0.000008 0.010448 7.445233
v -0.689735 0.614223 7.403791
v 0.576546 0.614223 7.403791
v 0.576546 0.614223 -10.131521
v -0.689735 0.614223 -10.131521
v -0.689735 0.057811 7.403791
v 0.576546 0.057811 7.403791
v 0.576546 0.057811 -10.131521
v -0.689735 0.057811 -10.131521
vt 0.017781 0.578863
vt 0.022120 0.583202
vt 0.011854 0.589129
vt 0.023708 0.589129
vt 0.022120 0.595056
vt 0.017781 0.599395
vt 0.011854 0.600983
vt 0.005927 0.599395
vt 0.001588 0.595056
vt 0.000000 0.589129
vt 0.001588 0.583202
vt 0.005927 0.578863
vt 0.011854 0.577275
vt 0.961954 0.631021
vt 0.963474 0.633398
vt 0.959521 0.637351
vt 0.957144 0.635831
vt 0.957750 0.643449
vt 0.954897 0.643449
vt 0.959521 0.649546
vt 0.957144 0.651066
vt 0.963474 0.653499
vt 0.961954 0.655877
vt 0.969571 0.655270
vt 0.969571 0.658123
vt 0.975669 0.653499
vt 0.977189 0.655876
vt 0.979622 0.649546
vt 0.981999 0.651066
vt 0.981393 0.643449
vt 0.984246 0.643449
vt 0.979622 0.637351
vt 0.981999 0.635831
vt 0.975669 0.633398
vt 0.977189 0.631021
vt 0.969571 0.631627
vt 0.969571 0.628775
vt 0.969571 0.643449
vt 0.002598 0.000000
vt 0.007224 0.000000
vt 0.007224 0.064065
vt 0.002598 0.064065
vt 0.009822 0.000000
vt 0.009822 0.064065
vt 0.000000 0.000000
vt 0.000000 0.064065
vn 0.000000 1.000000 0.000000
vn 0.000000 1.000000 -0.000000
vn 0.000000 1.000000 -0.000000
vn 0.000000 1.000000 0.000000
vn 0.000000 1.000000 -0.000000
vn 0.000000 1.000000 -0.000000
vn 0.000000 1.000000 0.000000
vn 0.000000 1.000000 0.000000
vn 0.000000 1.000000 0.000000
vn 0.000000 1.000000 0.000000
vn 0.000000 1.000000 0.000000
vn 0.000000 1.000000 -0.000000
vn 0.000000 1.000000 -0.000000
vn 0.707103 0.000000 -0.707111
vn 0.707103 0.000000 -0.707111
vn 0.707103 0.000000 -0.707111
vn 0.707103 0.000000 -0.707111
vn 0.258820 0.000000 -0.965926
vn 0.258820 0.000000 -0.965926
vn 0.258820 0.000000 -0.965926
vn 0.258820 0.000000 -0.965926
vn -0.258820 0.000000 -0.965926
vn -0.258820 0.000000 -0.965926
vn -0.258820 0.000000 -0.965926
vn -0.258820 0.000000 -0.965926
vn -0.707111 0.000000 -0.707103
vn -0.707111 0.000000 -0.707103
vn -0.707111 0.000000 -0.707103
vn -0.707111 0.000000 -0.707103
vn -0.965924 0.000000 -0.258824
vn -0.965924 0.000000 -0.258824
vn -0.965924 0.000000 -0.258824
vn -0.965924 0.000000 -0.258824
vn -0.965925 0.000000 0.258824
vn -0.965925 0.000000 0.258824
vn -0.965925 0.000000 0.258824
vn -0.965925 0.000000 0.258824
vn -0.707110 0.000000 0.707104
vn -0.707110 0.000000 0.707104
vn -0.707110 0.000000 0.707104
vn -0.707110 0.000000 0.707104
vn -0.258822 0.000000 0.965925
vn -0.258822 0.000000 0.965925
vn -0.258822 0.000000 0.965925
vn -0.258822 0.000000 0.965925
vn 0.258822 0.000000 0.965925
vn 0.258822 0.000000 0.965925
vn 0.258822 0.000000 0.965925
vn 0.258822 0.000000 0.965925
vn 0.707101 0.000000 0.707112
vn 0.707101 0.000000 0.707112
vn 0.707101 0.000000 0.707112
vn 0.707101 0.000000 0.707112
vn 0.965926 0.000000 0.258819
vn 0.965926 0.000000 0.258819
vn 0.965926 0.000000 0.258819
vn 0.965926 0.000000 0.258819
vn 0.965926 0.000000 -0.258819
vn 0.965926 0.000000 -0.258819
vn 0.965926 0.000000 -0.258819
vn 0.965926 0.000000 -0.258819
vn 0.000000 -1.000000 0.000000
vn 0.000000 -1.000000 0.000000
vn 0.000000 -1.000000 0.000000
vn 0.000000 -1.000000 0.000000
vn 0.000000 -1.000000 0.000000
vn 0.000000 -1.000000 0.000000
vn 0.000000 -1.000000 0.000000
vn 0.000000 -1.000000 0.000000
vn 0.000000 -1.000000 0.000000
vn 0.000000 -1.000000 0.000000
vn 0.000000 -1.000000 0.000000
vn 0.000000 -1.000000 0.000000
vn 0.000000 -1.000000 0.000000
vn 0.000000 -1.000000 0.000000
vn 0.000000 -1.000000 0.000000
vn 0.000000 -1.000000 0.000000
vn 0.000000 -1.000000 0.000000
vn 0.000000 -1.000000 0.000000
vn 0.000000 -1.000000 0.000000
vn 0.000000 -1.000000 0.000000
vn 0.000000 -1.000000 0.000000
vn 0.000000 -1.000000 0.000000
vn 0.000000 -1.000000 0.000000
vn 0.000000 -1.000000 0.000000
vn 0.000000 -1.000000 0.000000
vn 0.000000 -1.000000 0.000000
vn 0.000000 -1.000000 0.000000
vn 0.000000 -1.000000 0.000000
vn 0.000000 -1.000000 0.000000
vn 0.000000 -1.000000 0.000000
vn 0.000000 -1.000000 0.000000
vn 0.000000 -1.000000 0.000000
vn 0.000000 -1.000000 0.000000
vn 0.000000 -1.000000 0.000000
vn 0.000000 -1.000000 0.000000
vn 0.000000 -1.000000 0.000000
vn 0.000000 1.000000 0.000000
vn 0.000000 1.000000 0.000000
vn 0.000000 1.000000 0.000000
vn 0.000000 1.000000 0.000000
vn 0.000000 0.000000 1.000000
vn 0.000000 0.000000 1.000000
vn 0.000000 0.000000 1.000000
vn 0.000000 0.000000 1.000000
vn 1.000000 0.000000 0.000000
vn 1.000000 0.000000 0.000000
vn 1.000000 0.000000 0.000000
vn 1.000000 0.000000 0.000000
vn -1.000000 0.000000 0.000000
vn -1.000000 0.000000 0.000000
vn -1.000000 0.000000 0.000000
vn -1.000000 0.000000 0.000000
vn 0.000000 -1.000000 0.000000
vn 0.000000 -1.000000 0.000000
vn 0.000000 -1.000000 0.000000
vn 0.000000 -1.000000 0.000000
vn 0.000000 0.000000 -1.000000
vn 0.000000 0.000000 -1.000000
vn 0.000000 0.000000 -1.000000
vn 0.000000 0.000000 -1.000000
s 1
g polySurface1705
usemtl lambert24SG
f 1/1/1 2/2/2 3/3/3
f 2/2/2 4/4/4 3/3/3
f 4/4/4 5/5/5 3/3/3
f 5/5/5 6/6/6 3/3/3
f 6/6/6 7/7/7 3/3/3
f 7/7/7 8/8/8 3/3/3
f 8/8/8 9/9/9 3/3/3
f 9/9/9 10/10/10 3/3/3
f 10/10/10 11/11/11 3/3/3
f 11/11/11 12/12/12 3/3/3
f 12/12/12 13/13/13 3/3/3
f 13/13/13 1/1/1 3/3/3
s off
f 1/14/14 14/15/15 15/16/16 2/17/17
f 2/17/18 15/16/19 16/18/20 4/19/21
f 4/19/22 16/18/23 17/20/24 5/21/25
f 5/21/26 17/20/27 18/22/28 6/23/29
f 6/23/30 18/22/31 19/24/32 7/25/33
f 7/25/34 19/24/35 20/26/36 8/27/37
f 8/27/38 20/26/39 21/28/40 9/29/41
f 9/29/42 21/28/43 22/30/44 10/31/45
f 10/31/46 22/30/47 23/32/48 11/33/49
f 11/33/50 23/32/51 24/34/52 12/35/53
f 12/35/54 24/34/55 25/36/56 13/37/57
f 13/37/58 25/36/59 14/15/60 1/14/61
f 15/16/62 14/15/63 26/38/64
f 16/18/65 15/16/66 26/38/67
f 17/20/68 16/18/69 26/38/70
f 18/22/71 17/20/72 26/38/73
f 19/24/74 18/22/75 26/38/76
f 20/26/77 19/24/78 26/38/79
f 21/28/80 20/26/81 26/38/82
f 22/30/83 21/28/84 26/38/85
f 23/32/86 22/30/87 26/38/88
f 24/34/89 23/32/90 26/38/91
f 25/36/92 24/34/93 26/38/94
f 14/15/95 25/36/96 26/38/97
f 27/39/98 28/40/99 29/41/100 30/42/101
f 31//102 32//103 28//104 27//105
f 28/40/106 32/43/107 33/44/108 29/41/109
f 31/45/110 27/39/111 30/42/112 34/46/113
f 33/44/114 32/43/115 31/45/116 34/46/117
f 29/41/118 33/44/119 34/46/120 30/42/121
