# This file uses centimeters as units for non-parametric coordinates.

mtllib team_xiaowujian_shu_1ben.mtl
g default
v 9.032299 3.819111 11.122109
v 8.492939 3.819111 -11.539310
v -9.420483 3.819111 -11.112940
v -8.881069 3.819111 11.548498
v 8.492939 0.265171 -11.539310
v 9.032299 0.265171 11.122109
v -8.881069 0.265171 11.548498
v -9.420483 0.265171 -11.112940
v -9.260349 4.064563 12.099002
v 8.991344 4.060901 11.664577
v 8.426167 4.060901 -12.079165
v -9.825459 4.064563 -11.644752
v -9.825459 0.022937 -11.644752
v 8.426228 0.026600 -12.079150
v 8.991323 0.026600 11.664536
v -9.260349 0.022937 12.099002
v 9.825459 0.368702 11.644681
v 9.260265 0.368702 -12.099002
v 9.260265 3.718799 -12.099002
v 9.825420 3.718799 11.644670
v -9.260349 3.849903 12.099002
v -9.825459 3.849903 -11.644752
v 8.384678 3.849903 -12.078135
v 8.949879 3.849903 11.665553
v -9.825459 0.237598 -11.644752
v -9.260349 0.237598 12.099002
v 8.949879 0.237568 11.665553
v 8.384678 0.237568 -12.078135
v 9.557285 0.472370 11.651055
v 9.557285 3.615131 11.651055
v 8.992085 3.615131 -12.092566
v 8.992085 0.472370 -12.092566
vt 0.809233 0.079549
vt 0.709233 0.079080
vt 0.709611 0.000000
vt 0.809597 0.000469
vt 0.709146 0.094764
vt 0.809153 0.095259
vt 0.808772 0.174308
vt 0.708770 0.173922
vt 0.808717 0.189993
vt 0.708713 0.189598
vt 0.824830 0.095324
vt 0.824446 0.174382
vt 0.107902 0.000000
vt 0.108418 0.084005
vt 0.001327 0.084678
vt 0.000000 0.001727
vt 0.003184 0.188925
vt 0.001839 0.107834
vt 0.108180 0.107173
vt 0.107802 0.188265
vt 0.108223 0.103133
vt 0.001748 0.103794
vt 0.001417 0.088742
vt 0.108376 0.088071
vt 0.109083 0.365366
vt 0.006972 0.367473
vt 0.005308 0.288791
vt 0.108290 0.287179
vt 0.003206 0.189871
vt 0.107394 0.188802
vt 0.108167 0.267927
vt 0.004845 0.269478
vt 0.108206 0.270752
vt 0.108293 0.284364
vt 0.005241 0.285966
vt 0.004914 0.272311
vt 0.109188 0.287006
vt 0.109493 0.365884
vt 0.006995 0.368400
vt 0.109078 0.268085
vt 0.109264 0.270565
vt 0.109350 0.284542
vn 0.000000 1.000000 0.000000
vn 0.000000 1.000000 0.000000
vn 0.000000 1.000000 0.000000
vn 0.000000 1.000000 0.000000
vn 0.000000 -1.000000 0.000000
vn 0.000000 -1.000000 0.000000
vn 0.000000 -1.000000 0.000000
vn 0.000000 -1.000000 0.000000
vn 0.999717 0.000000 -0.023794
vn 0.999717 0.000000 -0.023794
vn 0.999717 0.000000 -0.023794
vn 0.999717 0.000000 -0.023794
vn -0.999717 0.000000 0.023796
vn -0.999717 0.000000 0.023796
vn -0.999717 0.000000 0.023796
vn -0.999717 0.000000 0.023796
vn 0.023796 0.000000 0.999717
vn 0.023796 0.000000 0.999717
vn 0.023796 0.000000 0.999717
vn 0.023796 0.000000 0.999717
vn 0.000201 1.000000 -0.000005
vn 0.018102 0.999836 -0.000431
vn 0.018103 0.999836 -0.000431
vn 0.000201 1.000000 -0.000005
vn 0.000201 -1.000000 -0.000005
vn 0.018103 -0.999836 -0.000431
vn 0.018103 -0.999836 -0.000431
vn 0.000201 -1.000000 -0.000005
vn 0.999717 0.000007 -0.023796
vn 0.999717 0.000007 -0.023796
vn 0.999717 0.000007 -0.023796
vn 0.999717 0.000007 -0.023796
vn 0.018102 0.999836 -0.000431
vn 0.379274 0.925240 -0.009027
vn 0.379274 0.925240 -0.009027
vn 0.018103 0.999836 -0.000431
vn 0.379273 -0.925241 -0.009027
vn 0.018103 -0.999836 -0.000431
vn 0.018103 -0.999836 -0.000431
vn 0.379273 -0.925241 -0.009027
vn 0.000000 -1.000000 0.000000
vn 0.000000 -1.000000 0.000000
vn -0.012468 -0.999922 0.000297
vn -0.012468 -0.999922 0.000297
vn 0.000002 1.000000 0.000001
vn 0.000002 1.000000 0.000001
vn -0.012468 0.999922 0.000297
vn -0.012468 0.999922 0.000297
vn -0.999717 0.000000 0.023798
vn -0.999717 0.000000 0.023798
vn -0.999717 0.000000 0.023798
vn -0.999717 0.000000 0.023798
vn -0.012468 -0.999922 0.000297
vn -0.012468 -0.999922 0.000297
vn -0.360331 -0.932785 0.008577
vn -0.360331 -0.932785 0.008577
vn -0.360371 0.932770 0.008579
vn -0.360371 0.932770 0.008579
vn -0.012468 0.999922 0.000297
vn -0.012468 0.999922 0.000297
vn 0.023795 -0.000026 0.999717
vn 0.023797 -0.000027 0.999717
vn 0.023797 -0.000027 0.999717
vn 0.023795 -0.000026 0.999717
vn -0.999717 0.000000 0.023794
vn -0.999717 0.000000 0.023794
vn -0.999717 0.000000 0.023794
vn -0.999717 0.000000 0.023794
vn 0.023799 -0.000070 0.999717
vn 0.023798 -0.000071 0.999717
vn 0.023798 -0.000071 0.999717
vn 0.023799 -0.000070 0.999717
vn -0.999717 0.000000 0.023794
vn -0.999717 0.000000 0.023794
vn -0.999717 0.000000 0.023794
vn -0.999717 0.000000 0.023794
vn 0.023794 -0.000010 0.999717
vn 0.023794 -0.000004 0.999717
vn 0.023790 -0.000001 0.999717
vn 0.023790 -0.000005 0.999717
vn 0.023797 -0.000027 0.999717
vn 0.023794 -0.000010 0.999717
vn 0.023790 -0.000005 0.999717
vn 0.023797 -0.000027 0.999717
vn 0.023794 -0.000004 0.999717
vn 0.023799 -0.000070 0.999717
vn 0.023799 -0.000070 0.999717
vn 0.023790 -0.000001 0.999717
s off
g polySurface1694polySurface1851
usemtl initialShadingGroup
f 1/1/1 2/2/2 3/3/3 4/4/4
f 5/5/5 6/6/6 7/7/7 8/8/8
f 1/1/9 6/6/10 5/5/11 2/2/12
f 7/7/13 4/9/14 3/10/15 8/8/16
f 6/6/17 1/11/18 4/12/19 7/7/20
f 9/13/21 10/14/22 11/15/23 12/16/24
f 13/17/25 14/18/26 15/19/27 16/20/28
f 17/21/29 18/22/30 19/23/31 20/24/32
f 10/14/33 20/24/34 19/23/35 11/15/36
f 17/21/37 15/19/38 14/18/39 18/22/40
f 21/25/41 22/26/42 23/27/43 24/28/44
f 25/29/45 26/30/46 27/31/47 28/32/48
f 29/33/49 30/34/50 31/35/51 32/36/52
f 24/28/53 23/27/54 31/35/55 30/34/56
f 29/33/57 32/36/58 28/32/59 27/31/60
f 21/25/61 24/28/62 10/37/63 9/38/64
f 22/26/65 21/25/66 9/38/67 12/39/68
f 27/31/69 26/30/70 16/20/71 15/40/72
f 26/30/73 25/29/74 13/17/75 16/20/76
f 30/34/77 29/33/78 17/41/79 20/42/80
f 24/28/81 30/34/82 20/42/83 10/37/84
f 29/33/85 27/31/86 15/40/87 17/41/88
