# This file uses centimeters as units for non-parametric coordinates.

mtllib team_xiaowujian_changbubang.mtl
g default
v -4.637328 1.165207 18.065491
v 4.637327 1.165207 18.065491
v -4.637328 2.035553 18.065491
v 4.637327 2.035553 18.065491
v -4.637328 3.336922 -18.065491
v 4.637327 3.336922 -18.065491
v -4.637328 2.466568 -18.065491
v 4.637327 2.466568 -18.065491
v 0.000000 2.035553 15.574264
v 0.000000 3.336922 -18.065491
v 0.000000 2.466568 -18.065491
v 0.000000 1.165207 18.065491
v 2.318664 2.035553 12.343052
v 2.318664 3.336922 -18.065491
v 2.318664 2.466568 -18.065491
v 2.318664 1.165207 15.514554
v -2.318664 2.035553 18.065491
v -2.318664 3.336922 -18.065491
v -2.318664 2.466568 -18.065491
v -2.318664 1.165207 18.065491
v -4.637328 3.336922 0.000000
v -4.637328 2.466568 0.000000
v -2.318664 2.466568 0.000000
v 0.000000 2.466568 0.000000
v 2.318664 2.466568 0.000000
v 4.637327 2.466568 0.000000
v 4.637327 3.336922 0.000000
v 2.318664 3.336922 0.000000
v 0.000000 3.336922 0.000000
v -2.318664 3.336922 0.000000
v -3.477996 2.035553 11.782434
v -3.477996 3.336922 0.000000
v -3.477996 3.336922 -18.065491
v -3.477996 2.466568 -18.065491
v -3.477996 2.466568 0.000000
v -3.477996 1.165207 14.469933
v -0.645382 2.035553 10.932064
v -1.159332 3.336922 0.000000
v -1.159332 3.336922 -18.065491
v -1.159332 2.466568 -18.065491
v -1.159332 2.466568 0.000000
v -0.645382 1.165207 14.899634
v -1.482023 2.035553 17.654406
v -1.738998 3.336922 0.000000
v -1.738998 3.336922 -18.065491
v -1.738998 2.466568 -18.065491
v -1.738998 2.466568 0.000000
v -1.482023 1.165207 17.654406
v -2.318664 2.035553 9.563540
v -3.477996 2.035553 9.563517
v -4.637328 2.035553 9.563540
v -4.637328 1.165207 9.563540
v -3.477996 1.165207 9.563527
v -2.318664 1.165207 9.563540
v -1.656238 1.165207 9.563537
v -0.993811 1.165207 9.563528
v 0.000000 1.165207 9.563540
v 2.318664 1.165207 9.563530
v 4.637327 1.165207 9.563540
v 4.637327 2.035553 9.563540
v 2.318664 2.035553 9.563519
v 0.000000 2.035553 9.563530
v -0.993811 2.035553 9.563515
v -1.656238 2.035553 9.563537
vt 0.865689 0.048029
vt 0.841471 0.023734
vt 0.831741 0.000000
vt 0.871287 0.042449
vt 0.682037 0.365054
vt 0.691247 0.422379
vt 0.690995 0.442524
vt 0.680363 0.442519
vt 0.681223 0.694089
vt 0.691766 0.694077
vt 0.691777 0.701982
vt 0.681238 0.701994
vt 0.229133 0.251200
vt 0.239673 0.251200
vt 0.239673 0.295808
vt 0.229133 0.328499
vt 0.770538 0.364235
vt 0.773152 0.441447
vt 0.765279 0.442107
vt 0.762648 0.364569
vt 0.672478 0.441912
vt 0.674159 0.364842
vt 0.722319 0.388079
vt 0.743514 0.417233
vt 0.744008 0.442326
vt 0.722797 0.442497
vt 0.723415 0.701930
vt 0.723394 0.694026
vt 0.744481 0.693954
vt 0.744510 0.701858
vt 0.271295 0.328499
vt 0.271295 0.251200
vt 0.292376 0.251200
vt 0.292376 0.305306
vt 0.852628 0.091718
vt 0.857332 0.068222
vt 0.875001 0.094060
vt 0.869828 0.123472
vt 0.765572 0.693852
vt 0.765601 0.701759
vt 0.313457 0.251200
vt 0.313457 0.328499
vt 0.897882 0.072699
vt 0.903275 0.078476
vt 0.701972 0.365467
vt 0.709539 0.369210
vt 0.707653 0.442526
vt 0.701615 0.442533
vt 0.702320 0.701969
vt 0.702310 0.694065
vt 0.707581 0.694057
vt 0.707593 0.701961
vt 0.250214 0.328499
vt 0.250214 0.251200
vt 0.256236 0.251200
vt 0.257820 0.324761
vt 0.833371 0.057993
vt 0.841274 0.058038
vt 0.841225 0.066502
vt 0.833322 0.066457
vt 0.673319 0.694094
vt 0.673134 0.529669
vt 0.681004 0.530085
vt 0.229133 0.000000
vt 0.239673 0.000000
vt 0.239673 0.164249
vt 0.229133 0.164249
vt 0.255484 0.164249
vt 0.250214 0.164249
vt 0.250214 0.000000
vt 0.255484 0.000000
vt 0.292376 0.164249
vt 0.271295 0.164249
vt 0.271295 0.000000
vt 0.292376 0.000000
vt 0.313457 0.164249
vt 0.313457 0.000000
vt 0.764977 0.529944
vt 0.772844 0.529499
vt 0.773477 0.693807
vt 0.743996 0.529910
vt 0.723003 0.529932
vt 0.702003 0.530003
vt 0.707253 0.529984
vt 0.691503 0.530042
vt 0.716876 0.430110
vt 0.713690 0.442520
vt 0.712852 0.694048
vt 0.712503 0.529967
vt 0.712866 0.701952
vt 0.260754 0.164249
vt 0.260754 0.000000
vt 0.265427 0.299715
vt 0.262259 0.251200
vt 0.830207 0.127891
vt 0.841075 0.092645
vn 0.918083 0.332698 0.215488
vn 0.918083 0.332698 0.215488
vn 0.918083 0.332698 0.215488
vn 0.918083 0.332698 0.215488
vn 0.000000 1.000000 0.000000
vn 0.000000 1.000000 0.000000
vn 0.000001 0.996220 0.086871
vn 0.000001 0.996220 0.086870
vn 0.000000 0.000000 -1.000000
vn 0.000000 0.000000 -1.000000
vn 0.000000 0.000000 -1.000000
vn 0.000000 0.000000 -1.000000
vn -0.000000 -0.996816 -0.079741
vn -0.000000 -0.996816 -0.079742
vn 0.000000 -1.000000 0.000000
vn 0.000000 -1.000000 0.000000
vn 1.000000 0.000000 0.000000
vn 1.000000 0.000000 0.000000
vn 1.000000 0.000000 0.000000
vn 1.000000 0.000000 0.000000
vn -1.000000 0.000000 0.000000
vn -1.000000 0.000000 0.000000
vn -1.000000 0.000000 0.000000
vn -1.000000 0.000000 0.000000
vn 0.000000 1.000000 0.000000
vn 0.000000 1.000000 0.000000
vn 0.000000 0.995682 0.092828
vn 0.000000 0.995682 0.092828
vn 0.000000 0.000000 -1.000000
vn 0.000000 0.000000 -1.000000
vn 0.000000 0.000000 -1.000000
vn 0.000000 0.000000 -1.000000
vn 0.000000 -1.000000 0.000000
vn -0.000000 -0.997010 -0.077276
vn -0.000000 -0.997010 -0.077276
vn 0.000000 -1.000000 0.000000
vn 0.344003 0.897521 0.275893
vn 0.344003 0.897521 0.275893
vn 0.344003 0.897521 0.275893
vn 0.344003 0.897521 0.275893
vn 0.000000 1.000000 0.000000
vn 0.000000 1.000000 0.000000
vn -0.000000 0.996357 0.085280
vn -0.000000 0.996357 0.085281
vn 0.000000 0.000000 -1.000000
vn 0.000000 0.000000 -1.000000
vn 0.000000 0.000000 -1.000000
vn 0.000000 0.000000 -1.000000
vn 0.000000 -1.000000 0.000000
vn 0.000000 -0.997010 -0.077276
vn 0.000000 -0.997010 -0.077276
vn 0.000000 -1.000000 0.000000
vn -0.651344 0.665179 0.365086
vn -0.651344 0.665179 0.365086
vn -0.651344 0.665179 0.365086
vn -0.651344 0.665179 0.365086
vn 0.000000 1.000000 0.000000
vn 0.000000 1.000000 0.000000
vn 0.000000 0.997847 0.065589
vn 0.000000 0.997804 0.066233
vn 0.000000 0.000000 -1.000000
vn 0.000000 0.000000 -1.000000
vn 0.000000 0.000000 -1.000000
vn 0.000000 0.000000 -1.000000
vn 0.000000 -1.000000 -0.000000
vn -0.000000 -0.997804 -0.066232
vn -0.000000 -0.997847 -0.065588
vn 0.000000 -1.000000 -0.000000
vn 0.440993 0.000000 0.897510
vn 0.440993 0.000000 0.897510
vn 0.440993 0.000000 0.897510
vn 0.440993 0.000000 0.897510
vn -1.000000 0.000000 0.000000
vn -1.000000 0.000000 0.000000
vn -1.000000 0.000000 0.000000
vn -1.000000 0.000000 0.000000
vn 0.000000 -1.000000 0.000000
vn 0.000000 -1.000000 0.000000
vn 0.000000 -1.000000 0.000000
vn 0.000000 -1.000000 0.000000
vn 0.000000 -1.000000 0.000000
vn 0.000000 -1.000000 0.000000
vn 0.000000 -1.000000 0.000000
vn 0.000000 -1.000000 0.000000
vn 0.000000 -1.000000 0.000000
vn 0.000000 -1.000000 0.000000
vn 0.000000 -1.000000 0.000000
vn 0.000000 -1.000000 0.000000
vn 0.000000 -1.000000 0.000000
vn 0.000000 -1.000000 0.000000
vn 0.000000 -1.000000 0.000000
vn 0.000000 -1.000000 0.000000
vn 1.000000 0.000000 0.000000
vn 1.000000 0.000000 0.000000
vn 1.000000 0.000000 0.000000
vn 1.000000 0.000000 0.000000
vn 0.000000 1.000000 0.000000
vn 0.000000 1.000000 0.000000
vn 0.000000 1.000000 0.000000
vn 0.000000 1.000000 0.000000
vn 0.000000 1.000000 0.000000
vn 0.000000 1.000000 0.000000
vn 0.000000 1.000000 0.000000
vn 0.000000 1.000000 0.000000
vn 0.000000 1.000000 0.000000
vn 0.000000 1.000000 0.000000
vn 0.000000 1.000000 0.000000
vn 0.000000 1.000000 0.000000
vn 0.000000 1.000000 0.000000
vn 0.000000 1.000000 0.000000
vn 0.000000 1.000000 0.000000
vn 0.000000 1.000000 0.000000
vn 0.000000 1.000000 0.000000
vn 0.000000 1.000000 0.000000
vn -0.000001 0.996220 0.086870
vn -0.000001 0.996220 0.086871
vn 0.000000 1.000000 0.000000
vn 0.000000 1.000000 0.000000
vn 0.000000 1.000000 0.000000
vn 0.000000 1.000000 0.000000
vn 0.000000 0.000000 -1.000000
vn 0.000000 0.000000 -1.000000
vn 0.000000 0.000000 -1.000000
vn 0.000000 0.000000 -1.000000
vn 0.000000 -1.000000 0.000000
vn 0.000000 -1.000000 0.000000
vn 0.000000 -1.000000 0.000000
vn 0.000000 -1.000000 0.000000
vn 0.000000 -1.000000 0.000000
vn 0.000000 -0.996816 -0.079742
vn 0.000000 -0.996816 -0.079741
vn 0.000000 -1.000000 0.000000
vn -0.918083 0.332698 0.215488
vn -0.918083 0.332698 0.215488
vn -0.918083 0.332698 0.215488
vn -0.918083 0.332698 0.215488
vn 0.000000 1.000000 -0.000000
vn 0.000000 1.000000 -0.000000
vn -0.000001 0.994168 0.107843
vn -0.000001 0.993754 0.111597
vn 0.000000 1.000000 0.000000
vn 0.000000 1.000000 0.000000
vn 0.000000 1.000000 0.000000
vn 0.000000 1.000000 0.000000
vn 0.000000 0.000000 -1.000000
vn 0.000000 0.000000 -1.000000
vn 0.000000 0.000000 -1.000000
vn 0.000000 0.000000 -1.000000
vn 0.000000 -1.000000 0.000000
vn 0.000000 -1.000000 0.000000
vn 0.000000 -1.000000 0.000000
vn 0.000000 -1.000000 0.000000
vn 0.000000 -1.000000 0.000000
vn 0.000000 -0.995893 -0.090536
vn 0.000000 -0.996038 -0.088934
vn 0.000000 -1.000000 0.000000
vn -0.844079 0.517746 0.139536
vn -0.844079 0.517746 0.139536
vn -0.844079 0.517746 0.139536
vn -0.844079 0.517746 0.139536
vn 0.000000 1.000000 -0.000000
vn 0.000000 1.000000 -0.000000
vn 0.000001 0.997370 0.072482
vn 0.000001 0.996923 0.078388
vn 0.000000 1.000000 0.000000
vn 0.000000 1.000000 0.000000
vn 0.000000 1.000000 0.000000
vn 0.000000 1.000000 0.000000
vn 0.000000 0.000000 -1.000000
vn 0.000000 0.000000 -1.000000
vn 0.000000 0.000000 -1.000000
vn 0.000000 0.000000 -1.000000
vn 0.000000 -1.000000 0.000000
vn 0.000000 -1.000000 0.000000
vn 0.000000 -1.000000 0.000000
vn 0.000000 -1.000000 0.000000
vn 0.000000 -1.000000 0.000000
vn -0.000001 -0.997420 -0.071791
vn -0.000000 -0.997589 -0.069403
vn 0.000000 -1.000000 0.000000
vn 0.915496 0.368428 0.161640
vn 0.915496 0.368428 0.161640
vn 0.915496 0.368428 0.161640
vn 0.915496 0.368428 0.161640
vn -0.000001 0.990868 0.134834
vn -0.000001 0.990868 0.134834
vn 0.000001 0.990868 0.134834
vn 0.000001 0.990868 0.134834
vn -1.000000 0.000000 0.000000
vn -1.000000 0.000000 0.000000
vn -0.000001 -0.990868 -0.134833
vn -0.000001 -0.990868 -0.134833
vn 0.000001 -0.990868 -0.134833
vn 0.000001 -0.990868 -0.134833
vn -0.000000 -0.990868 -0.134833
vn -0.000000 -0.990868 -0.134833
vn -0.000001 -0.990868 -0.134833
vn -0.000001 -0.990868 -0.134833
vn 0.000001 -0.990868 -0.134833
vn 0.000001 -0.990868 -0.134833
vn -0.000000 -0.990868 -0.134833
vn -0.000000 -0.990868 -0.134833
vn 0.000000 -0.990868 -0.134833
vn 0.000000 -0.990868 -0.134833
vn 1.000000 0.000000 0.000000
vn 1.000000 0.000000 0.000000
vn -0.000001 0.990868 0.134834
vn -0.000001 0.990868 0.134834
vn 0.000000 0.990868 0.134834
vn 0.000000 0.990868 0.134834
vn -0.000001 0.990868 0.134834
vn -0.000001 0.990868 0.134834
vn 0.000002 0.990868 0.134834
vn 0.000002 0.990868 0.134834
vn 0.000000 0.990868 0.134833
vn 0.000000 0.990868 0.134833
s off
g polySurface1701 polySurface1530
usemtl lambert24SG
f 1/1/1 36/2/2 31/3/3 3/4/4
s 1
f 3/5/5 31/6/6 50/7/7 51/8/8
s off
f 5/9/9 33/10/10 34/11/11 7/12/12
s 2
f 52/13/13 53/14/14 36/15/15 1/16/16
s 3
f 2/17/17 59/18/18 60/19/19 4/20/20
s 4
f 52/21/21 1/22/22 3/5/23 51/8/24
s 5
f 9/23/25 13/24/26 61/25/27 62/26/28
s off
f 11/27/29 10/28/30 14/29/31 15/30/32
s 6
f 12/31/33 57/32/34 58/33/35 16/34/36
s off
f 9/35/37 12/36/38 16/37/39 13/38/40
s 7
f 13/24/41 4/20/42 60/19/43 61/25/44
s off
f 15/30/45 14/29/46 6/39/47 8/40/48
s 8
f 16/34/49 58/33/50 59/41/51 2/42/52
s off
f 13/38/53 16/37/54 2/43/55 4/44/56
s 9
f 17/45/57 43/46/58 64/47/59 49/48/60
s off
f 19/49/61 18/50/62 45/51/63 46/52/64
s 10
f 20/53/65 54/54/66 55/55/67 48/56/68
s off
f 17/57/69 20/58/70 48/59/71 43/60/72
f 7/61/73 22/62/74 21/63/75 5/9/76
f 7/64/77 34/65/78 35/66/79 22/67/80
f 47/68/81 23/69/82 19/70/83 46/71/84
f 25/72/85 24/73/86 11/74/87 15/75/88
f 26/76/89 25/72/90 15/75/91 8/77/92
f 27/78/93 26/79/94 8/80/95 6/39/96
f 28/81/97 27/78/98 6/39/99 14/29/100
f 29/82/101 28/81/102 14/29/103 10/28/104
f 30/83/105 44/84/106 45/51/107 18/50/108
f 21/63/109 32/85/110 33/10/111 5/9/112
s 11
f 31/6/113 17/45/114 49/48/115 50/7/116
s off
f 33/10/117 32/85/118 30/83/119 18/50/120
f 34/11/121 33/10/122 18/50/123 19/49/124
f 35/66/125 34/65/126 19/70/127 23/69/128
s 12
f 36/15/129 53/14/130 54/54/131 20/53/132
s off
f 31/3/133 36/2/134 20/58/135 17/57/136
s 13
f 37/86/137 9/23/138 62/26/139 63/87/140
s off
f 39/88/141 38/89/142 29/82/143 10/28/144
f 40/90/145 39/88/146 10/28/147 11/27/148
f 24/73/149 41/91/150 40/92/151 11/74/152
s 14
f 42/93/153 56/94/154 57/32/155 12/31/156
s off
f 37/95/157 42/96/158 12/36/159 9/35/160
s 15
f 43/46/161 37/86/162 63/87/163 64/47/164
s off
f 45/51/165 44/84/166 38/89/167 39/88/168
f 46/52/169 45/51/170 39/88/171 40/90/172
f 41/91/173 47/68/174 46/71/175 40/92/176
s 16
f 48/56/177 55/55/178 56/94/179 42/93/180
s off
f 43/60/181 48/59/182 42/96/183 37/95/184
s 11
f 50/7/116 49/48/115 30/83/185 32/85/186
s 1
f 51/8/8 50/7/7 32/85/187 21/63/188
s 4
f 22/62/189 52/21/21 51/8/24 21/63/190
s 2
f 22/67/191 35/66/192 53/14/14 52/13/13
s 12
f 54/54/131 53/14/130 35/66/193 23/69/194
s 10
f 55/55/67 54/54/66 23/69/195 47/68/196
s 16
f 56/94/179 55/55/178 47/68/197 41/91/198
s 14
f 57/32/155 56/94/154 41/91/199 24/73/200
s 6
f 58/33/35 57/32/34 24/73/201 25/72/202
s 8
f 59/41/51 58/33/50 25/72/203 26/76/204
s 3
f 60/19/19 59/18/18 26/79/205 27/78/206
s 7
f 61/25/44 60/19/43 27/78/207 28/81/208
s 5
f 62/26/28 61/25/27 28/81/209 29/82/210
s 13
f 63/87/140 62/26/139 29/82/211 38/89/212
s 15
f 64/47/164 63/87/163 38/89/213 44/84/214
s 9
f 49/48/60 64/47/59 44/84/215 30/83/216
