# This file uses centimeters as units for non-parametric coordinates.

mtllib team_xiaowujian_yumaobi.mtl
g default
v -0.019614 0.074975 8.067108
v -0.094499 0.074381 8.067863
v -0.175280 -0.009710 6.091895
v 0.022448 -0.008173 6.089917
v -0.132458 0.138959 8.068986
v -0.275449 0.160731 6.094901
v -0.095507 0.204119 8.069355
v -0.177914 0.332748 6.095876
v -0.020597 0.204700 8.068602
v 0.019814 0.334284 6.093897
v 0.017363 0.140134 8.067478
v 0.119997 0.163830 6.090892
v -0.057548 0.139540 8.068232
v -0.190316 0.270571 -8.086929
v -0.254056 0.270067 -8.086277
v -0.222601 0.325503 -8.085930
v -0.286355 0.325013 -8.085278
v -0.254910 0.380449 -8.084982
v -0.191170 0.380940 -8.085634
v -0.158888 0.325994 -8.086584
v -0.146561 0.208019 -6.058447
v -0.092685 0.303008 -6.057938
v -0.148023 0.397133 -6.056313
v -0.257185 0.396280 -6.055193
v -0.311059 0.301291 -6.055756
v -0.255721 0.207167 -6.057383
v -1.990979 0.243337 2.454137
v -0.118267 0.224910 5.286897
v -0.151718 0.262603 2.012716
v -1.823753 0.272107 0.083001
v -1.823069 0.183032 0.081956
v -0.151034 0.173515 2.011671
v -0.117570 0.135821 5.285853
v -1.990282 0.154261 2.453093
v 1.696170 0.272120 2.416791
v 1.696867 0.183032 2.415746
v 1.481255 0.208820 0.048501
v 1.480574 0.297908 0.049495
v 1.347817 0.319524 -1.903843
v -0.184785 0.299845 -1.222839
v -1.593912 0.309246 -2.967619
v -1.593215 0.220145 -2.968663
v -0.184104 0.210757 -1.223832
v 1.348502 0.230436 -1.904888
v -1.322098 0.358419 -7.030460
v -0.252094 0.375684 -7.809881
v -0.251412 0.286583 -7.810875
v -1.321414 0.269344 -7.031506
v 0.833663 0.375245 -7.052298
v 0.834343 0.286157 -7.053291
v -1.386019 0.348863 -6.248596
v -0.261659 0.351859 -5.760714
v 0.175231 0.355501 -5.785402
v -1.385335 0.259775 -6.249641
v 0.175911 0.266412 -5.786396
v 0.145603 0.265935 -5.765873
v 1.258449 0.324457 -2.388779
v -0.185578 0.300736 -1.300094
v -0.184882 0.211648 -1.301138
v 1.259143 0.235369 -2.389771
v -1.590385 0.318311 -3.748318
v -1.589701 0.229235 -3.749363
v 0.176614 0.265638 -5.718771
v 0.175930 0.354713 -5.717728
v 0.928816 0.366890 -6.267088
v 0.929513 0.277789 -6.268131
v 0.937895 0.362784 -5.908037
v 0.938592 0.273696 -5.909082
vt 0.919004 0.424651
vt 0.917442 0.424664
vt 0.915835 0.383409
vt 0.919959 0.383377
vt 0.913148 0.424663
vt 0.911587 0.424610
vt 0.911711 0.383365
vt 0.910024 0.424653
vt 0.907586 0.383384
vt 0.905729 0.424629
vt 0.904167 0.424607
vt 0.903462 0.383327
vt 0.899874 0.424511
vt 0.898314 0.424424
vt 0.899340 0.383192
vt 0.896750 0.424434
vt 0.895216 0.383121
vt 0.221673 0.411425
vt 0.221675 0.409862
vt 0.223027 0.410645
vt 0.223025 0.412208
vt 0.224379 0.411428
vt 0.224381 0.409866
vt 0.223029 0.409083
vt 0.514920 0.366634
vt 0.514946 0.367963
vt 0.513782 0.367321
vt 0.513807 0.368650
vt 0.512644 0.368008
vt 0.512618 0.366679
vt 0.513756 0.365992
vt 0.903374 0.129757
vt 0.905650 0.129850
vt 0.907927 0.129915
vt 0.910203 0.129952
vt 0.912481 0.129962
vt 0.914758 0.129944
vt 0.917035 0.129898
vt 0.910639 0.087646
vt 0.911970 0.087645
vt 0.913300 0.087614
vt 0.914629 0.087554
vt 0.906654 0.087472
vt 0.907980 0.087560
vt 0.909309 0.087618
vt 0.777986 0.413959
vt 0.786409 0.343631
vt 0.816405 0.404988
vt 0.803278 0.456603
vt 0.810738 0.568666
vt 0.823865 0.620282
vt 0.793870 0.681639
vt 0.785446 0.611310
vt 0.979813 0.302672
vt 0.979409 0.228960
vt 0.981358 0.228946
vt 0.981760 0.302658
vt 0.982700 0.758506
vt 0.980549 0.758492
vt 0.981171 0.705078
vt 0.983323 0.705093
vt 0.982389 0.347354
vt 0.980443 0.347368
vt 0.847079 0.380173
vt 0.865197 0.426325
vt 0.872657 0.598944
vt 0.854539 0.645096
vt 0.981559 0.800799
vt 0.979409 0.800784
vt 0.880990 0.463986
vt 0.846047 0.465621
vt 0.836092 0.511330
vt 0.983201 0.404713
vt 0.981253 0.404727
vt 0.843552 0.513940
vt 0.853507 0.559649
vt 0.888450 0.561284
vt 0.981693 0.661492
vt 0.983843 0.661507
vt 0.989411 0.722450
vt 0.989001 0.687491
vt 0.990860 0.687468
vt 0.991271 0.722428
vt 0.667096 0.400975
vt 0.666898 0.447209
vt 0.665018 0.447196
vt 0.665216 0.400962
vt 0.424525 1.000000
vt 0.424162 0.972576
vt 0.426033 0.972554
vt 0.426395 0.999977
vt 0.990259 0.520107
vt 0.992215 0.520120
vt 0.992206 0.545682
vt 0.990250 0.545668
vt 0.230748 0.519187
vt 0.247148 0.499578
vt 0.255524 0.495950
vt 0.266490 0.537692
vt 0.239251 0.533167
vt 0.988980 0.257474
vt 0.990918 0.257461
vt 0.991125 0.272029
vt 0.989188 0.272042
vt 0.626113 0.463282
vt 0.653351 0.458757
vt 0.642385 0.500499
vt 0.641628 0.500597
vt 0.617609 0.477262
vt 0.992439 0.644730
vt 0.991940 0.682140
vt 0.990067 0.682117
vt 0.990565 0.644707
vt 0.989871 0.149624
vt 0.990253 0.210877
vt 0.988317 0.210890
vt 0.987935 0.149637
vt 0.641766 0.501766
vt 0.593713 0.580748
vt 0.590416 0.521966
vt 0.203555 0.474483
vt 0.206851 0.415701
vt 0.254904 0.494683
vt 0.274079 0.497884
vt 0.279648 0.513413
vt 0.660940 0.498564
vt 0.666509 0.483036
vt 0.992022 0.562031
vt 0.990067 0.562018
vt 0.243955 0.422493
vt 0.270891 0.491105
vt 0.989861 0.348508
vt 0.987935 0.348495
vt 0.988765 0.277370
vt 0.990690 0.277384
vt 0.630817 0.573956
vt 0.657752 0.505344
vt 0.995395 0.169722
vt 0.996152 0.169624
vt 0.995533 0.170891
vt 0.000170 0.621337
vt 0.000000 0.605155
vt 0.001881 0.605133
vt 0.002051 0.621314
vt 0.852557 0.300926
vt 0.852319 0.319532
vt 0.850455 0.319509
vt 0.850693 0.300904
vt 0.339175 0.700880
vt 0.337838 0.700863
vt 0.337851 0.698903
vt 0.339188 0.698920
vn 0.506265 -0.861098 0.046976
vn -0.491676 -0.868905 0.057080
vn -0.493271 -0.869868 -0.003630
vn 0.506647 -0.862044 -0.013755
vn -0.997357 -0.008560 0.072150
vn -0.999904 -0.007834 0.011471
vn -0.505013 0.859660 0.077119
vn -0.506628 0.862008 0.016444
vn 0.492981 0.867456 0.067010
vn 0.493306 0.869833 0.006319
vn 0.998625 0.007020 0.051944
vn 0.999931 0.007807 -0.008783
vn 0.010155 -0.011414 0.999883
vn 0.010157 -0.011428 0.999883
vn 0.010146 -0.011425 0.999883
vn 0.010141 -0.011416 0.999883
vn 0.010142 -0.011427 0.999883
vn 0.010140 -0.011432 0.999883
vn 0.010140 -0.011434 0.999883
vn -0.010343 0.012112 -0.999873
vn -0.010333 0.012120 -0.999873
vn -0.010332 0.011652 -0.999879
vn -0.010318 0.011651 -0.999879
vn -0.010310 0.011184 -0.999884
vn -0.010336 0.011193 -0.999884
vn -0.010353 0.011653 -0.999879
vn 0.506511 -0.861908 -0.023673
vn 0.999793 0.008002 -0.018701
vn 0.493176 0.869922 -0.003602
vn -0.506726 0.862083 0.006526
vn -0.999969 -0.007727 0.001552
vn -0.493429 -0.869681 -0.013546
vn -0.506645 0.862124 -0.007293
vn -0.999896 -0.007644 -0.012260
vn -0.493254 -0.869455 -0.027362
vn 0.506231 -0.861583 -0.037488
vn 0.999439 0.008050 -0.032520
vn 0.492951 0.869882 -0.017424
vn -0.007693 0.999903 0.011590
vn -0.007688 0.999903 0.011590
vn -0.007688 0.999903 0.011590
vn -0.007689 0.999903 0.011590
vn 0.007684 -0.999903 -0.011588
vn 0.007685 -0.999903 -0.011590
vn 0.007685 -0.999903 -0.011590
vn 0.007686 -0.999903 -0.011590
vn -0.834159 -0.012990 0.551371
vn 0.010347 -0.011643 0.999879
vn 0.010203 -0.011644 0.999880
vn -0.834159 -0.012990 0.551371
vn 0.995849 0.008737 -0.090604
vn 0.995849 0.008737 -0.090604
vn 0.996736 0.008593 -0.080273
vn 0.996736 0.008593 -0.080266
vn -0.997493 -0.006910 -0.070430
vn -0.997493 -0.006910 -0.070430
vn -0.997299 -0.006876 -0.073122
vn -0.997299 -0.006876 -0.073122
vn -0.007684 0.999903 0.011591
vn -0.007688 0.999903 0.011589
vn 0.007688 -0.999903 -0.011589
vn 0.007684 -0.999903 -0.011591
vn 0.845255 0.000346 0.534363
vn 0.845255 0.000346 0.534363
vn -0.007690 0.999903 0.011588
vn -0.007688 0.999903 0.011589
vn -0.007687 0.999903 0.011591
vn -0.997144 -0.006848 -0.075213
vn -0.997144 -0.006848 -0.075213
vn 0.007683 -0.999903 -0.011587
vn 0.007686 -0.999903 -0.011587
vn 0.007690 -0.999903 -0.011588
vn 0.997670 0.008416 -0.067711
vn 0.997670 0.008416 -0.067711
vn -0.406143 0.007341 -0.913780
vn -0.406143 0.007341 -0.913780
vn -0.406143 0.007341 -0.913780
vn -0.406143 0.007341 -0.913780
vn 0.777940 0.013196 -0.628200
vn 0.777940 0.013196 -0.628200
vn 0.777940 0.013196 -0.628200
vn 0.777940 0.013196 -0.628200
vn -0.588813 0.004737 -0.808255
vn -0.010163 0.011212 -0.999885
vn -0.010193 0.011212 -0.999885
vn -0.588813 0.004737 -0.808255
vn 0.572173 0.013521 -0.820021
vn 0.572173 0.013521 -0.820021
vn -0.007687 0.999903 0.011590
vn -0.007687 0.999903 0.011590
vn -0.007690 0.999903 0.011589
vn -0.007690 0.999903 0.011589
vn -0.007689 0.999903 0.011590
vn -0.996647 -0.006697 -0.081549
vn -0.996647 -0.006697 -0.081549
vn -0.996646 -0.006698 -0.081563
vn -0.996646 -0.006698 -0.081563
vn 0.007682 -0.999903 -0.011593
vn 0.007684 -0.999903 -0.011591
vn 0.007684 -0.999903 -0.011591
vn 0.007684 -0.999903 -0.011589
vn 0.007684 -0.999903 -0.011589
vn 0.602035 -0.004430 0.798458
vn 0.602035 -0.004430 0.798458
vn 0.602035 -0.004430 0.798458
vn 0.602035 -0.004430 0.798458
vn -0.867323 -0.012557 0.497587
vn -0.867323 -0.012557 0.497587
vn -0.867323 -0.012557 0.497587
vn -0.867323 -0.012557 0.497587
vn 0.007685 -0.999903 -0.011589
vn 0.007685 -0.999903 -0.011589
vn 0.007685 -0.999903 -0.011588
vn -0.996647 -0.006697 -0.081545
vn -0.996647 -0.006697 -0.081545
vn -0.007686 0.999903 0.011591
vn -0.007689 0.999903 0.011590
vn -0.007689 0.999903 0.011590
vn -0.007691 0.999903 0.011586
vn -0.007691 0.999903 0.011586
vn 0.007690 -0.999903 -0.011586
vn 0.007690 -0.999903 -0.011586
vn 0.992706 0.009049 -0.120216
vn 0.992706 0.009049 -0.120216
vn 0.992706 0.009049 -0.120216
vn 0.992707 0.009049 -0.120216
vn -0.007691 0.999903 0.011589
vn -0.007691 0.999903 0.011589
vn 0.995847 0.008811 -0.090610
vn 0.995848 0.008811 -0.090610
vn 0.995847 0.008811 -0.090610
vn 0.995848 0.008811 -0.090610
vn 0.007685 -0.999903 -0.011590
vn 0.007685 -0.999903 -0.011590
vn -0.242401 0.009492 -0.970130
vn -0.242401 0.009492 -0.970130
vn -0.242401 0.009492 -0.970130
vn -0.242401 0.009492 -0.970130
vn 0.538637 -0.005467 0.842520
vn 0.538637 -0.005467 0.842520
vn 0.538637 -0.005467 0.842520
vn 0.538637 -0.005467 0.842520
vn 0.999917 0.007782 -0.010271
vn 0.999917 0.007782 -0.010271
vn 0.999917 0.007782 -0.010271
vn 0.999917 0.007782 -0.010271
s 1
g polySurface1697
usemtl lambert24SG
f 1/1/1 2/2/2 3/3/3 4/4/4
f 2/5/2 5/6/5 6/7/6 3/3/3
f 5/6/5 7/8/7 8/9/8 6/7/6
f 7/10/7 9/11/9 10/12/10 8/9/8
f 9/13/9 11/14/11 12/15/12 10/12/10
f 11/14/11 1/16/1 4/17/4 12/15/12
s 2
f 2/18/13 1/19/14 13/20/15
f 5/21/16 2/18/13 13/20/15
f 7/22/17 5/21/16 13/20/15
f 9/23/18 7/22/17 13/20/15
f 11/24/19 9/23/18 13/20/15
f 1/19/14 11/24/19 13/20/15
s 3
f 14/25/20 15/26/21 16/27/22
f 15/26/21 17/28/23 16/27/22
f 17/28/23 18/29/24 16/27/22
f 18/29/24 19/30/25 16/27/22
f 19/30/25 20/31/26 16/27/22
f 20/31/26 14/25/20 16/27/22
s 1
f 12/15/12 4/17/4 21/32/27 22/33/28
f 10/12/10 12/15/12 22/33/28 23/34/29
f 8/9/8 10/12/10 23/34/29 24/35/30
f 6/7/6 8/9/8 24/35/30 25/36/31
f 3/3/3 6/7/6 25/36/31 26/37/32
f 4/4/4 3/3/3 26/37/32 21/38/27
f 25/36/31 24/35/30 18/39/33 17/40/34
f 26/37/32 25/36/31 17/40/34 15/41/35
f 21/38/27 26/37/32 15/41/35 14/42/36
f 22/33/28 21/32/27 14/43/36 20/44/37
f 23/34/29 22/33/28 20/44/37 19/45/38
f 24/35/30 23/34/29 19/45/38 18/39/33
s 4
f 27/46/39 28/47/40 29/48/41 30/49/42
s 5
f 31/50/43 32/51/44 33/52/45 34/53/46
s 6
f 34/54/47 33/55/48 28/56/49 27/57/50
s 7
f 35/58/51 36/59/52 37/60/53 38/61/54
s 8
f 34/54/55 27/57/56 30/62/57 31/63/58
s 4
f 28/47/40 35/64/59 38/65/60 29/48/41
s 5
f 33/52/45 32/51/44 37/66/61 36/67/62
s 6
f 28/68/49 33/69/48 36/59/63 35/58/64
s 4
f 29/48/41 38/65/60 39/70/65 40/71/66
f 30/49/42 29/48/41 40/71/66 41/72/67
s 8
f 31/63/58 30/62/57 41/73/68 42/74/69
s 5
f 42/75/70 43/76/71 32/51/44 31/50/43
f 37/66/61 32/51/44 43/76/71 44/77/72
s 7
f 38/61/54 37/60/53 44/78/73 39/79/74
s off
f 40/80/75 39/81/76 44/82/77 43/83/78
f 41/84/79 40/85/80 43/86/81 42/87/82
s 9
f 45/88/83 46/89/84 47/90/85 48/91/86
f 47/92/85 46/93/84 49/94/87 50/95/88
s 10
f 51/96/89 52/97/90 53/98/91 46/99/92 45/100/93
s 11
f 54/101/94 51/102/95 45/103/96 48/104/97
s 12
f 48/105/98 47/106/99 55/107/100 56/108/101 54/109/102
s off
f 57/110/103 58/111/104 59/112/105 60/113/106
f 58/114/107 61/115/108 62/116/109 59/117/110
s 12
f 54/109/102 56/108/101 63/118/111 59/119/112 62/120/113
s 11
f 62/116/114 61/115/115 51/102/95 54/101/94
s 10
f 61/121/116 58/122/117 64/123/118 52/97/90 51/96/89
f 53/98/91 65/124/119 49/125/120 46/99/92
s 12
f 66/126/121 55/107/100 47/106/99 50/127/122
s off
f 65/128/123 66/129/124 50/95/125 49/94/126
s 10
f 58/122/117 57/130/127 67/131/128 64/123/118
s off
f 57/132/129 60/133/130 68/134/131 67/135/132
s 12
f 60/136/133 59/119/112 63/118/111 68/137/134
s 10
f 52/97/90 64/123/118 53/98/91
s 12
f 56/138/101 55/139/100 63/140/111
s off
f 64/141/135 67/142/136 68/143/137 63/144/138
f 65/145/139 53/146/140 55/147/141 66/148/142
f 53/149/143 64/150/144 63/151/145 55/152/146
