# This file uses centimeters as units for non-parametric coordinates.

mtllib team_xiaowujian_huaping.mtl
g default
v -2.395233 1.303436 2.395236
v 2.395241 1.303436 2.395236
v -2.375839 18.621750 2.375840
v 2.375847 18.621750 2.375840
v -2.375839 18.621750 -2.375841
v 2.375847 18.621750 -2.375841
v -2.395233 1.303436 -2.395237
v 2.395241 1.303436 -2.395237
v -3.763466 9.866348 -3.763471
v -3.763466 9.866348 3.763470
v 3.763474 9.866348 3.763470
v 3.763474 9.866348 -3.763471
v -2.282051 23.011810 2.282050
v 2.282059 23.011810 2.282050
v 2.282059 23.011810 -2.282051
v -2.282051 23.011810 -2.282051
v -3.340775 26.034912 3.340776
v 3.340790 26.034912 3.340777
v 3.340790 26.034912 -3.340777
v -3.340775 26.034912 -3.340777
v -1.886040 21.192535 1.886043
v -1.886040 21.192535 -1.886043
v 1.886047 21.192535 -1.886043
v 1.886047 21.192535 1.886043
v -2.485458 26.506683 2.485463
v 2.485474 26.506683 2.485463
v 2.485474 26.506683 -2.485463
v -2.485458 26.506683 -2.485463
v -1.490623 0.080170 -1.490631
v 1.490639 0.080170 -1.490630
v 1.490639 0.080170 1.490630
v -1.490623 0.080170 1.490630
v -1.974487 20.422531 1.974489
v 1.974495 20.422531 -1.974489
v 2.514725 21.192535 -0.000000
v -1.974487 20.422531 -1.974489
v 0.000000 21.192535 -2.514724
v -2.514725 21.192535 -0.000000
v 0.000008 23.011826 3.042734
v 2.850960 24.619614 2.850948
v 0.000008 26.034912 4.454369
v -2.850945 24.619614 2.850948
v 3.042740 23.011826 -0.000000
v 2.850960 24.619614 -2.850949
v 4.454384 26.034912 -0.000000
v 0.000008 23.011826 -3.042734
v -2.850945 24.619614 -2.850949
v 0.000008 26.034912 -4.454370
v -3.042732 23.011826 -0.000000
v -4.454369 26.034912 -0.000000
v -1.974487 21.962540 1.974489
v -1.974487 21.962540 -1.974489
v 1.974495 21.962540 -1.974489
v 1.974495 21.962540 1.974489
v 3.411140 26.506683 3.411129
v -3.411125 26.506683 3.411129
v 3.411140 26.506683 -3.411129
v -3.411125 26.506683 -3.411129
v 2.052078 0.080170 -2.052074
v -2.052071 0.080170 -2.052074
v 2.052078 0.080170 2.052074
v -2.052071 0.080170 2.052074
v 0.000000 9.866348 5.017961
v 3.226112 14.759430 3.226108
v 0.000008 18.621750 3.167787
v -3.226105 14.759430 3.226108
v 0.000008 26.506683 3.318205
v 3.318214 26.506683 -0.000000
v 0.000008 26.506683 -3.318206
v -3.318199 26.506683 -0.000000
v 0.000008 18.621750 -3.167788
v 3.226112 14.759430 -3.226108
v 0.000000 9.866348 -5.017961
v -3.226105 14.759430 -3.226108
v 0.000008 0.080170 -1.985869
v 1.985878 0.080170 -0.000000
v 0.000008 0.080170 1.985869
v -1.985863 0.080170 -0.000000
v 5.017960 9.866348 -0.000000
v 3.167793 18.621750 -0.000000
v -5.017960 9.866348 -0.000000
v -3.167786 18.621750 -0.000000
v -3.193649 1.303436 -0.000000
v -3.226105 4.973251 3.226108
v -3.226105 4.973251 -3.226108
v 0.000008 1.303436 3.193649
v 3.226112 4.973251 3.226108
v 3.193657 1.303436 -0.000000
v 3.226112 4.973251 -3.226108
v 0.000008 1.303436 -3.193650
v 1.974495 20.422531 1.974489
v 0.000000 21.192535 2.514724
v 0.000000 14.759430 4.301477
v 0.000008 26.506683 -0.000000
v 0.000000 14.759430 -4.301477
v 0.000008 0.080170 -0.000000
v 4.301483 14.759430 -0.000000
v -4.301476 14.759430 -0.000000
v -4.301476 4.973251 -0.000000
v 0.000000 4.973251 4.301477
v 4.301483 4.973251 -0.000000
v 0.000000 4.973251 -4.301477
v 0.000000 20.422531 2.632652
v 2.632660 20.422531 -0.000000
v 0.000000 20.422531 -2.632653
v -2.632652 20.422531 -0.000000
v 0.000008 24.619614 3.801265
v 3.801277 24.619614 -0.000000
v 0.000008 24.619614 -3.801265
v -3.801262 24.619614 -0.000000
v -2.632652 21.962540 -0.000000
v 0.000000 21.962540 -2.632653
v 2.632660 21.962540 -0.000000
v 0.000000 21.962540 2.632652
v 0.000008 26.506683 4.548172
v 4.548187 26.506683 -0.000000
v 0.000008 26.506683 -4.548172
v -4.548172 26.506683 -0.000000
v 0.000008 0.080170 -2.736099
v 2.736107 0.080170 -0.000000
v 0.000008 0.080170 2.736099
v -2.736099 0.080170 -0.000000
vt 0.889529 0.725762
vt 0.904552 0.725762
vt 0.904552 0.746797
vt 0.889529 0.746797
vt 0.920731 0.725762
vt 0.918421 0.746797
vt 0.914766 0.763400
vt 0.904553 0.763400
vt 0.889529 0.763400
vt 0.928830 0.688791
vt 0.925156 0.677824
vt 0.939798 0.677824
vt 0.939798 0.692466
vt 0.928830 0.666856
vt 0.939798 0.663181
vt 0.950766 0.666856
vt 0.954441 0.677824
vt 0.950766 0.688791
vt 0.859483 0.763400
vt 0.844459 0.763400
vt 0.844459 0.746797
vt 0.859483 0.746797
vt 0.829436 0.763400
vt 0.829436 0.746797
vt 0.829436 0.725762
vt 0.844459 0.725762
vt 0.859483 0.725762
vt 0.093952 0.865530
vt 0.091766 0.858953
vt 0.100530 0.858953
vt 0.100530 0.867716
vt 0.093952 0.852375
vt 0.100530 0.850190
vt 0.107107 0.852375
vt 0.109293 0.858953
vt 0.107107 0.865530
vt 0.798234 0.725763
vt 0.814413 0.725762
vt 0.814413 0.746797
vt 0.800545 0.746797
vt 0.814413 0.763400
vt 0.804200 0.763400
vt 0.874506 0.725762
vt 0.874506 0.746797
vt 0.874506 0.763400
vt 0.859483 0.688952
vt 0.874506 0.688952
vt 0.874506 0.704728
vt 0.859483 0.704728
vt 0.889529 0.688952
vt 0.889529 0.704728
vt 0.904553 0.688952
vt 0.904552 0.704728
vt 0.914849 0.688952
vt 0.918421 0.704728
vt 0.804116 0.688953
vt 0.814413 0.688953
vt 0.814413 0.704728
vt 0.800544 0.704728
vt 0.829436 0.688952
vt 0.829436 0.704728
vt 0.844459 0.704728
vt 0.844459 0.688952
vt 0.904552 0.771141
vt 0.889529 0.771141
vt 0.913040 0.771141
vt 0.912660 0.774451
vt 0.904552 0.774451
vt 0.889529 0.774451
vt 0.814413 0.771141
vt 0.805925 0.771141
vt 0.829436 0.771141
vt 0.829436 0.774451
vt 0.814413 0.774451
vt 0.806305 0.774451
vt 0.844459 0.771141
vt 0.859483 0.771141
vt 0.859483 0.774451
vt 0.844460 0.774451
vt 0.874506 0.771141
vt 0.874506 0.774451
vt 0.889529 0.782272
vt 0.904553 0.782272
vt 0.904553 0.789183
vt 0.889529 0.789183
vt 0.914363 0.782272
vt 0.916808 0.789183
vt 0.918914 0.795267
vt 0.904553 0.795267
vt 0.889529 0.795267
vt 0.804603 0.782272
vt 0.814413 0.782272
vt 0.814413 0.789183
vt 0.802157 0.789183
vt 0.829436 0.782272
vt 0.829436 0.789183
vt 0.829436 0.795267
vt 0.814413 0.795267
vt 0.800052 0.795267
vt 0.844459 0.782272
vt 0.844459 0.789183
vt 0.859483 0.782272
vt 0.859483 0.789183
vt 0.859483 0.795267
vt 0.844459 0.795267
vt 0.874506 0.782272
vt 0.874506 0.789183
vt 0.874506 0.795267
vt 0.874506 0.777761
vt 0.859483 0.777761
vt 0.889529 0.777761
vt 0.844460 0.777761
vt 0.829436 0.777761
vt 0.814413 0.777761
vt 0.805925 0.777761
vt 0.904552 0.777761
vt 0.913040 0.777761
vt 0.904553 0.797295
vt 0.889529 0.797295
vt 0.919216 0.797295
vt 0.919728 0.677824
vt 0.924746 0.662771
vt 0.924746 0.692876
vt 0.814413 0.797295
vt 0.799749 0.797295
vt 0.829436 0.797295
vt 0.939798 0.657754
vt 0.954851 0.662771
vt 0.844459 0.797295
vt 0.859483 0.797295
vt 0.959868 0.677824
vt 0.954851 0.692876
vt 0.874506 0.797295
vt 0.939798 0.697894
vt 0.844459 0.683694
vt 0.859483 0.683694
vt 0.829436 0.683694
vt 0.088456 0.858953
vt 0.091474 0.849897
vt 0.091474 0.868008
vt 0.814413 0.683694
vt 0.805591 0.683694
vt 0.100530 0.846879
vt 0.109585 0.849897
vt 0.904553 0.683694
vt 0.913374 0.683694
vt 0.889529 0.683694
vt 0.112603 0.858953
vt 0.109585 0.868008
vt 0.874506 0.683694
vt 0.100530 0.871026
vn -0.707107 -0.000000 0.707107
vn 0.000000 -0.000000 1.000000
vn -0.000000 0.196506 0.980503
vn -0.691877 0.206431 0.691876
vn 0.707107 -0.000000 0.707107
vn 0.691876 0.206431 0.691877
vn 0.674970 0.298044 0.674971
vn 0.000001 0.282429 0.959288
vn -0.674970 0.298044 0.674971
vn 0.000000 1.000000 0.000000
vn 0.000000 1.000000 0.000001
vn 0.000000 1.000000 0.000000
vn 0.000000 1.000000 0.000000
vn 0.000000 1.000000 0.000000
vn 0.000000 1.000000 0.000000
vn 0.000000 1.000000 -0.000000
vn 0.000000 1.000000 -0.000001
vn 0.000000 1.000000 -0.000000
vn -0.674970 0.298044 -0.674971
vn 0.000000 0.282429 -0.959288
vn -0.000000 0.196506 -0.980503
vn -0.691876 0.206431 -0.691877
vn 0.674970 0.298044 -0.674971
vn 0.691876 0.206431 -0.691877
vn 0.707107 -0.000000 -0.707107
vn 0.000000 -0.000000 -1.000000
vn -0.707107 -0.000000 -0.707107
vn 0.000000 -1.000000 -0.000000
vn 0.000000 -1.000000 -0.000000
vn 0.000000 -1.000000 0.000000
vn 0.000000 -1.000000 0.000000
vn 0.000000 -1.000000 0.000000
vn 0.000000 -1.000000 0.000000
vn 0.000000 -1.000000 0.000000
vn 0.000000 -1.000000 0.000000
vn 0.000000 -1.000000 0.000000
vn 1.000000 -0.000000 -0.000000
vn 0.980503 0.196506 0.000000
vn 0.959288 0.282428 0.000000
vn -1.000000 -0.000000 0.000000
vn -0.980503 0.196506 -0.000000
vn -0.959288 0.282429 -0.000000
vn -0.670719 -0.316657 -0.670720
vn -0.953677 -0.300833 -0.000000
vn -0.980257 -0.197729 0.000000
vn -0.691697 -0.207628 -0.691697
vn -0.670719 -0.316656 0.670720
vn -0.691697 -0.207628 0.691697
vn 0.000000 -0.300833 0.953677
vn -0.000000 -0.197729 0.980257
vn 0.670719 -0.316656 0.670720
vn 0.691697 -0.207628 0.691698
vn 0.953677 -0.300833 0.000000
vn 0.980257 -0.197729 0.000000
vn 0.670719 -0.316656 -0.670720
vn 0.691697 -0.207628 -0.691698
vn -0.000000 -0.197729 -0.980257
vn 0.000000 -0.300833 -0.953677
vn -0.000000 0.251631 0.967823
vn -0.681448 0.266942 0.681448
vn 0.681447 0.266943 0.681448
vn 0.707106 0.000000 0.707107
vn 0.000000 -0.000000 1.000000
vn -0.707106 0.000000 0.707107
vn 0.967823 0.251632 -0.000000
vn 0.681447 0.266943 -0.681448
vn 0.707106 -0.000000 -0.707107
vn 1.000000 0.000000 0.000000
vn -0.000001 0.251631 -0.967823
vn -0.681448 0.266942 -0.681448
vn -0.707107 0.000000 -0.707107
vn -0.000000 -0.000000 -1.000000
vn -0.967823 0.251631 0.000000
vn -1.000000 0.000000 0.000000
vn -0.638788 -0.428837 0.638788
vn 0.000000 -0.407486 0.913212
vn -0.000000 -0.422410 0.906405
vn -0.633952 -0.442955 0.633953
vn 0.638787 -0.428838 0.638787
vn 0.633952 -0.442956 0.633952
vn 0.655558 -0.374816 0.655558
vn -0.000000 -0.359079 0.933307
vn -0.655558 -0.374816 0.655558
vn 0.913211 -0.407487 0.000000
vn 0.906404 -0.422411 -0.000000
vn 0.638787 -0.428838 -0.638787
vn 0.633952 -0.442956 -0.633952
vn 0.655558 -0.374816 -0.655558
vn 0.933307 -0.359080 0.000000
vn 0.000000 -0.407486 -0.913212
vn 0.000000 -0.422410 -0.906405
vn -0.638788 -0.428837 -0.638788
vn -0.633951 -0.442955 -0.633953
vn -0.655558 -0.374816 -0.655558
vn 0.000000 -0.359079 -0.933307
vn -0.913212 -0.407485 0.000000
vn -0.906405 -0.422410 0.000000
vn -0.933307 -0.359080 0.000000
vn -0.957406 -0.288746 0.000000
vn -0.672924 -0.307157 -0.672925
vn -0.672924 -0.307157 0.672925
vn -0.000001 -0.288746 -0.957406
vn 0.672924 -0.307158 -0.672925
vn 0.957405 -0.288748 0.000000
vn 0.672924 -0.307158 0.672925
vn -0.000001 -0.288746 0.957406
vn -0.000000 0.860550 0.509367
vn -0.374548 0.848190 0.374550
vn 0.374548 0.848189 0.374551
vn 0.509364 0.860551 -0.000000
vn 0.374548 0.848189 -0.374550
vn 0.000000 0.860550 -0.509367
vn -0.374548 0.848189 -0.374551
vn -0.509364 0.860551 -0.000000
vn 0.000000 -0.592978 -0.805219
vn -0.572018 -0.587869 -0.572019
vn 0.572019 -0.587868 -0.572019
vn 0.805219 -0.592977 0.000000
vn 0.572019 -0.587868 0.572019
vn 0.000000 -0.592978 0.805219
vn -0.572017 -0.587869 0.572019
vn -0.805218 -0.592979 -0.000000
s 1
g polySurface1698 polySurface1530
usemtl lambert24SG
f 10/1/1 63/2/2 93/3/3 66/4/4
f 63/2/2 11/5/5 64/6/6 93/3/3
f 93/3/3 64/6/6 4/7/7 65/8/8
f 66/4/4 93/3/3 65/8/8 3/9/9
f 25/10/10 67/11/11 94/12/12 70/13/13
f 67/11/11 26/14/14 68/15/15 94/12/12
f 94/12/12 68/15/15 27/16/16 69/17/17
f 70/13/13 94/12/12 69/17/17 28/18/18
f 5/19/19 71/20/20 95/21/21 74/22/22
f 71/20/20 6/23/23 72/24/24 95/21/21
f 95/21/21 72/24/24 12/25/25 73/26/26
f 74/22/22 95/21/21 73/26/26 9/27/27
f 29/28/28 75/29/29 96/30/30 78/31/31
f 75/29/29 30/32/32 76/33/33 96/30/30
f 96/30/30 76/33/33 31/34/34 77/35/35
f 78/31/31 96/30/30 77/35/35 32/36/36
f 11/37/5 79/38/37 97/39/38 64/40/6
f 79/38/37 12/25/25 72/24/24 97/39/38
f 97/39/38 72/24/24 6/23/23 80/41/39
f 64/40/6 97/39/38 80/41/39 4/42/7
f 9/27/27 81/43/40 98/44/41 74/22/22
f 81/43/40 10/1/1 66/4/4 98/44/41
f 98/44/41 66/4/4 3/9/9 82/45/42
f 74/22/22 98/44/41 82/45/42 5/19/19
f 7/46/43 83/47/44 99/48/45 85/49/46
f 83/47/44 1/50/47 84/51/48 99/48/45
f 99/48/45 84/51/48 10/1/1 81/43/40
f 85/49/46 99/48/45 81/43/40 9/27/27
f 1/50/47 86/52/49 100/53/50 84/51/48
f 86/52/49 2/54/51 87/55/52 100/53/50
f 100/53/50 87/55/52 11/5/5 63/2/2
f 84/51/48 100/53/50 63/2/2 10/1/1
f 2/56/51 88/57/53 101/58/54 87/59/52
f 88/57/53 8/60/55 89/61/56 101/58/54
f 101/58/54 89/61/56 12/25/25 79/38/37
f 87/59/52 101/58/54 79/38/37 11/37/5
f 9/27/27 73/26/26 102/62/57 85/49/46
f 73/26/26 12/25/25 89/61/56 102/62/57
f 102/62/57 89/61/56 8/60/55 90/63/58
f 85/49/46 102/62/57 90/63/58 7/46/43
f 3/9/9 65/8/8 103/64/59 33/65/60
f 65/8/8 4/7/7 91/66/61 103/64/59
f 103/64/59 91/66/61 24/67/62 92/68/63
f 33/65/60 103/64/59 92/68/63 21/69/64
f 4/42/7 80/41/39 104/70/65 91/71/61
f 80/41/39 6/23/23 34/72/66 104/70/65
f 104/70/65 34/72/66 23/73/67 35/74/68
f 91/71/61 104/70/65 35/74/68 24/75/62
f 6/23/23 71/20/20 105/76/69 34/72/66
f 71/20/20 5/19/19 36/77/70 105/76/69
f 105/76/69 36/77/70 22/78/71 37/79/72
f 34/72/66 105/76/69 37/79/72 23/73/67
f 5/19/19 82/45/42 106/80/73 36/77/70
f 82/45/42 3/9/9 33/65/60 106/80/73
f 106/80/73 33/65/60 21/69/64 38/81/74
f 36/77/70 106/80/73 38/81/74 22/78/71
f 13/82/75 39/83/76 107/84/77 42/85/78
f 39/83/76 14/86/79 40/87/80 107/84/77
f 107/84/77 40/87/80 18/88/81 41/89/82
f 42/85/78 107/84/77 41/89/82 17/90/83
f 14/91/79 43/92/84 108/93/85 40/94/80
f 43/92/84 15/95/86 44/96/87 108/93/85
f 108/93/85 44/96/87 19/97/88 45/98/89
f 40/94/80 108/93/85 45/98/89 18/99/81
f 15/95/86 46/100/90 109/101/91 44/96/87
f 46/100/90 16/102/92 47/103/93 109/101/91
f 109/101/91 47/103/93 20/104/94 48/105/95
f 44/96/87 109/101/91 48/105/95 19/97/88
f 16/102/92 49/106/96 110/107/97 47/103/93
f 49/106/96 13/82/75 42/85/78 110/107/97
f 110/107/97 42/85/78 17/90/83 50/108/98
f 47/103/93 110/107/97 50/108/98 20/104/94
f 22/78/71 38/81/74 111/109/99 52/110/100
f 38/81/74 21/69/64 51/111/101 111/109/99
f 111/109/99 51/111/101 13/82/75 49/106/96
f 52/110/100 111/109/99 49/106/96 16/102/92
f 23/73/67 37/79/72 112/112/102 53/113/103
f 37/79/72 22/78/71 52/110/100 112/112/102
f 112/112/102 52/110/100 16/102/92 46/100/90
f 53/113/103 112/112/102 46/100/90 15/95/86
f 24/75/62 35/74/68 113/114/104 54/115/105
f 35/74/68 23/73/67 53/113/103 113/114/104
f 113/114/104 53/113/103 15/95/86 43/92/84
f 54/115/105 113/114/104 43/92/84 14/91/79
f 21/69/64 92/68/63 114/116/106 51/111/101
f 92/68/63 24/67/62 54/117/105 114/116/106
f 114/116/106 54/117/105 14/86/79 39/83/76
f 51/111/101 114/116/106 39/83/76 13/82/75
f 17/90/83 41/89/82 115/118/107 56/119/108
f 41/89/82 18/88/81 55/120/109 115/118/107
f 115/121/107 55/122/109 26/14/14 67/11/11
f 56/123/108 115/121/107 67/11/11 25/10/10
f 18/99/81 45/98/89 116/124/110 55/125/109
f 45/98/89 19/97/88 57/126/111 116/124/110
f 116/127/110 57/128/111 27/16/16 68/15/15
f 55/122/109 116/127/110 68/15/15 26/14/14
f 19/97/88 48/105/95 117/129/112 57/126/111
f 48/105/95 20/104/94 58/130/113 117/129/112
f 117/131/112 58/132/113 28/18/18 69/17/17
f 57/128/111 117/131/112 69/17/17 27/16/16
f 20/104/94 50/108/98 118/133/114 58/130/113
f 50/108/98 17/90/83 56/119/108 118/133/114
f 118/134/114 56/123/108 25/10/10 70/13/13
f 58/132/113 118/134/114 70/13/13 28/18/18
f 7/46/43 90/63/58 119/135/115 60/136/116
f 90/63/58 8/60/55 59/137/117 119/135/115
f 119/138/115 59/139/117 30/32/32 75/29/29
f 60/140/116 119/138/115 75/29/29 29/28/28
f 8/60/55 88/57/53 120/141/118 59/137/117
f 88/57/53 2/56/51 61/142/119 120/141/118
f 120/143/118 61/144/119 31/34/34 76/33/33
f 59/139/117 120/143/118 76/33/33 30/32/32
f 2/54/51 86/52/49 121/145/120 61/146/119
f 86/52/49 1/50/47 62/147/121 121/145/120
f 121/148/120 62/149/121 32/36/36 77/35/35
f 61/144/119 121/148/120 77/35/35 31/34/34
f 1/50/47 83/47/44 122/150/122 62/147/121
f 83/47/44 7/46/43 60/136/116 122/150/122
f 122/151/122 60/140/116 29/28/28 78/31/31
f 62/149/121 122/151/122 78/31/31 32/36/36
